<svg width="255" height="307" viewBox="0 0 255 307" fill="none" xmlns="http://www.w3.org/2000/svg">
<path d="M114.261 20.6564C16.7273 22.5492 7.98738 27.6724 5.26855 30.8728C2.93519 32.6557 16.5996 109.087 18.22 110.583C19.5162 111.781 23.8619 112.315 25.8728 112.432C33.5932 165.123 49.2847 271.552 50.2874 275.748C51.5408 280.992 71.8397 294.57 116.651 294.992C161.463 295.415 182.138 279.06 182.92 274.12C183.545 270.168 196.632 162.759 203.098 109.548L210.106 108.635C210.106 108.635 222.223 28.7891 221.687 26.8666C221.152 24.9442 211.794 18.7635 114.261 20.6564Z" stroke="white" stroke-width="10"/>
<rect x="129" y="105" width="75" height="10" rx="5" fill="white"/>
<g clip-path="url(#clip0)">
<path d="M85.2181 162.253C84.8401 161.877 84.462 161.5 84.084 161.312C83.706 161.123 83.1389 160.747 82.7609 160.747C83.895 160.182 84.8401 159.617 85.9742 158.864C86.9192 158.11 87.8643 157.357 88.6204 156.604C89.3764 155.851 89.9435 155.097 90.5105 154.344C90.8885 153.591 91.2666 152.838 91.2666 152.273C91.2666 152.084 91.2666 151.708 91.2666 151.519C91.2666 151.143 91.0775 150.766 90.8885 150.39C90.6995 150.013 90.5105 149.636 90.1325 149.26C89.7544 148.883 89.3764 148.506 88.6204 148.318C88.0533 147.942 87.2973 147.753 86.3522 147.565C85.2181 147 84.084 147 82.7609 147C80.4927 147 78.2246 147.188 76.1454 147.753C74.0662 148.13 71.9871 148.883 70.2859 149.636C68.3958 150.39 66.6947 151.331 65.3716 152.273C64.0485 153.214 62.5363 154.344 61.5913 155.286C60.6462 156.227 59.5121 157.357 58.9451 158.299C58.378 159.429 58 160.37 58 161.123C58 161.877 58.189 162.442 58.378 162.818C58.567 163.383 58.7561 163.76 59.1341 163.948C59.5121 164.136 59.8901 164.513 60.2682 164.513C60.6462 164.701 61.0242 164.701 61.4023 164.701H61.5913C62.3473 164.701 63.1034 164.513 64.0485 163.948C64.9935 163.383 65.9386 162.818 66.8837 162.065C67.8288 161.312 68.7738 160.558 69.7189 159.617C70.664 158.675 71.609 157.922 72.3651 157.169C73.1212 156.604 73.6882 156.039 74.0662 155.662C74.8223 155.286 75.2003 154.909 75.7674 154.532C75.3893 155.286 75.0113 156.227 74.6333 156.981C74.2553 157.922 73.6882 158.864 73.3102 159.805C73.3102 159.805 73.1212 159.805 73.1212 159.617C73.1212 159.617 72.9321 159.617 72.9321 159.429C72.9321 159.429 72.7431 159.24 72.5541 159.24C72.3651 159.24 72.3651 159.24 72.1761 159.24C71.7981 159.24 71.609 159.24 71.42 159.429C71.231 159.617 71.231 159.994 71.231 160.182C71.231 160.37 71.231 160.747 71.42 160.935C71.609 161.312 71.7981 161.5 72.1761 161.688C71.7981 162.253 71.609 163.006 71.231 163.571C70.853 164.136 70.853 164.89 70.664 165.266C70.475 165.643 70.2859 166.208 70.0969 166.584C69.9079 166.961 69.9079 167.338 69.9079 167.714C69.9079 168.091 69.9079 168.468 70.0969 168.844C70.2859 169.221 70.475 169.409 70.664 169.786C70.853 169.974 71.231 170.162 71.609 170.351C71.9871 170.539 72.1761 170.539 72.3651 170.539C72.5541 170.539 72.7431 170.539 72.9321 170.539C73.1212 170.539 73.1212 170.351 73.1212 170.351C73.1212 170.162 73.1212 170.162 73.1212 169.974C73.1212 169.786 73.1212 169.597 72.9321 169.409V169.221V169.032C72.9321 168.844 72.9321 168.468 73.1212 168.091C73.3102 167.714 73.4992 167.149 73.6882 166.584C73.8772 166.019 74.2553 165.455 74.6333 164.701C75.0113 164.136 75.3893 163.383 75.5784 162.63C76.1454 162.63 76.9015 162.442 77.6575 162.253C78.4136 162.065 78.9806 161.877 79.7367 161.688H80.3037C80.8708 161.688 81.4378 161.688 81.8158 161.877C82.3829 162.065 82.5719 162.065 82.7609 162.253C82.9499 162.442 83.1389 162.63 83.1389 162.818C83.1389 163.006 83.3279 163.195 83.3279 163.383C83.3279 163.948 83.1389 164.513 82.7609 165.266C82.3829 166.019 81.8158 166.584 81.0598 167.338C80.3037 168.091 79.5477 168.656 78.4136 169.409C77.2795 170.162 76.3344 170.727 75.2003 171.104C74.0662 171.669 72.7431 172.045 71.42 172.422C70.0969 172.799 68.7738 172.987 67.4507 172.987C66.8837 172.987 66.3166 172.799 66.1276 172.61C65.9386 172.422 65.7496 172.234 65.7496 172.045C65.7496 171.481 65.5606 171.104 65.3716 170.727C65.1826 170.351 64.8045 170.351 64.6155 170.351C64.4265 170.351 64.0485 170.539 63.8595 170.727C63.6704 170.916 63.6704 171.481 63.6704 172.045C63.6704 172.422 63.6704 172.799 63.8595 173.364C64.0485 173.74 64.2375 174.305 64.8045 174.682C65.3716 175.058 65.7496 175.435 66.5057 175.623C67.2617 175.812 68.2068 176 69.3409 176C70.475 176 71.7981 175.812 73.1212 175.435C74.4443 175.058 75.7674 174.682 76.9015 174.117C78.2246 173.552 79.3586 172.987 80.4927 172.234C81.6268 171.481 82.5719 170.727 83.517 169.974C84.462 169.221 85.0291 168.279 85.5961 167.526C86.1632 166.584 86.3522 165.831 86.3522 165.078C86.3522 164.513 86.3522 163.948 86.1632 163.571C85.9742 163.006 85.5961 162.63 85.2181 162.253ZM80.3037 158.11C79.3586 158.487 78.6026 158.864 77.6575 159.052C78.2246 157.922 78.6026 156.981 78.9806 156.227C79.3586 155.474 79.5477 154.721 79.5477 154.156C79.5477 153.779 79.3586 153.591 79.1696 153.214C78.9806 152.838 78.6026 152.649 78.4136 152.461C78.0355 152.273 77.8465 152.084 77.4685 151.896C77.2795 151.896 76.9015 151.896 76.7124 151.896C76.3344 151.896 75.9564 152.084 75.5784 152.461C75.2003 152.649 74.6333 153.026 74.0662 153.591C73.4992 153.968 72.9321 154.532 72.3651 154.909C71.7981 155.474 71.231 156.227 70.475 156.792C69.7189 157.545 68.9628 158.299 68.0178 159.052C67.0727 159.805 66.5057 160.37 65.7496 160.935C64.9935 161.5 64.2375 162.065 63.4814 162.442C62.9144 162.818 62.3473 163.006 61.7803 163.006C61.5913 163.006 61.5913 163.006 61.5913 162.818C61.5913 162.63 61.4023 162.63 61.4023 162.253C61.4023 161.688 61.5913 161.123 62.1583 160.182C62.5363 159.24 63.2924 158.487 64.2375 157.357C65.1826 156.416 66.1276 155.286 67.4507 154.344C68.7738 153.403 70.0969 152.461 71.7981 151.519C73.4992 150.578 75.0113 150.201 76.9015 149.636C78.7916 149.26 80.6817 148.883 82.9499 148.883C84.462 148.883 85.5961 149.071 86.3522 149.26C87.1082 149.448 87.6753 149.825 88.0533 150.013C88.2423 150.39 88.4313 150.766 88.4313 150.955C88.4313 151.143 88.4313 151.519 88.4313 151.708C88.4313 152.084 88.2423 152.461 88.0533 152.838C87.6753 153.214 87.2973 153.779 86.9192 154.156C86.3522 154.532 85.7851 155.097 85.2181 155.474C84.462 155.851 83.706 156.416 82.9499 156.792C82.0048 157.357 81.2488 157.734 80.3037 158.11Z" fill="#FDC055"/>
<path d="M175 160.935C174.811 160.747 174.811 160.747 174.622 160.747C174.433 160.747 174.244 160.558 174.055 160.558C173.866 160.558 173.677 160.558 173.677 160.747C173.488 160.935 173.299 161.312 173.11 161.877C172.921 162.442 172.543 163.006 172.165 163.571C171.787 164.136 171.22 164.89 170.842 165.454C170.275 166.019 169.708 166.584 169.14 167.149C168.573 167.714 168.006 168.091 167.25 168.467C166.683 168.844 165.927 169.032 165.36 169.032C164.982 169.032 164.793 168.844 164.793 168.656C164.604 168.467 164.604 168.091 164.604 167.903C164.604 167.526 164.604 167.338 164.604 166.961C165.171 166.773 165.549 166.584 166.116 166.396C166.683 166.019 167.25 165.643 167.628 165.266C168.195 164.89 168.573 164.325 169.14 163.76C169.519 163.195 170.086 162.63 170.275 162.065C170.653 161.5 170.842 160.935 171.031 160.558C171.22 160.182 171.409 159.617 171.409 159.24C171.409 158.675 171.22 158.299 171.031 157.922C170.842 157.545 170.275 157.357 169.519 157.357C168.384 157.357 167.439 157.545 166.305 158.11C165.171 158.675 164.226 159.24 163.47 160.182C162.714 160.935 161.958 161.877 161.391 163.006C161.202 163.571 161.013 164.136 160.824 164.701C160.635 164.89 160.446 165.266 160.257 165.454C159.879 166.019 159.312 166.584 158.934 167.149C158.556 167.714 158.178 168.091 157.8 168.467C157.422 168.844 157.044 169.032 156.855 169.032C156.855 169.032 156.855 169.032 156.855 168.844C156.855 168.467 156.855 168.091 157.044 167.526C157.233 166.961 157.422 166.396 157.8 165.643C158.178 164.89 158.178 163.948 158.556 163.195C158.934 162.442 159.312 161.5 159.69 160.747C160.068 159.993 160.446 159.052 160.824 158.299C161.202 157.545 161.58 156.792 161.769 156.039C162.147 155.286 162.336 154.721 162.525 154.156C162.714 153.591 162.714 153.214 162.714 152.838C162.714 152.461 162.525 152.273 162.147 151.896C161.769 151.519 161.391 151.331 161.013 151.143C161.202 150.954 160.824 150.766 160.446 150.766C160.068 150.578 160.068 150.766 160.068 150.954C160.068 151.143 160.068 151.519 159.879 152.084C159.69 152.649 159.501 153.214 159.123 153.967C158.745 154.721 158.556 155.474 158.178 156.227C157.8 156.98 157.422 157.922 157.044 158.675C156.666 159.617 156.098 160.558 155.72 161.5C155.531 161.877 155.531 162.065 155.342 162.442C155.153 162.818 154.964 163.195 154.775 163.571C154.397 164.136 154.019 164.701 153.641 165.454C153.263 166.019 152.696 166.584 152.318 167.149C151.94 167.714 151.562 168.091 151.184 168.467C150.806 168.844 150.428 169.032 150.239 169.032C150.239 169.032 150.239 169.032 150.239 168.844C150.239 168.467 150.239 168.091 150.428 167.526C150.617 166.961 150.806 166.396 151.184 165.643C151.562 164.89 151.94 164.136 152.318 163.383C152.696 162.63 153.074 161.688 153.452 160.935C153.83 160.182 154.208 159.24 154.586 158.487C154.964 157.734 155.342 156.98 155.531 156.227C155.909 155.474 156.098 154.909 156.287 154.344C156.477 153.779 156.287 153.214 156.287 152.838C156.287 152.461 156.098 152.273 155.72 151.896C155.342 151.519 154.964 151.331 154.586 151.143C154.397 150.954 154.019 150.766 153.641 150.766C153.263 150.766 153.074 150.766 153.074 151.143C153.074 151.519 153.074 151.708 152.885 152.273C152.696 152.838 152.507 153.403 152.129 154.156C151.751 154.909 151.562 155.662 151.184 156.416C150.806 157.169 150.428 158.11 150.05 158.864C149.672 159.805 149.105 160.747 148.727 161.688C148.538 162.065 148.349 162.442 148.349 162.818C148.16 163.383 147.971 163.76 147.593 164.325C147.215 164.89 147.026 165.454 146.648 166.019C146.27 166.584 145.892 167.149 145.703 167.526C145.325 168.091 144.947 168.467 144.758 168.656C144.38 169.032 144.191 169.032 143.813 169.032C143.813 169.032 143.813 169.032 143.813 168.844C143.813 168.656 143.813 168.279 144.002 167.714C144.191 167.338 144.38 166.773 144.569 166.208C144.758 165.643 145.136 165.078 145.325 164.513C145.514 163.948 145.892 163.383 146.081 162.818C146.459 162.065 146.648 161.5 147.026 160.935C147.404 160.37 147.404 159.993 147.404 159.805C147.404 159.429 147.215 159.24 147.026 158.864C146.837 158.487 146.081 158.487 145.703 158.299C145.325 158.11 144.947 157.922 144.758 157.922C144.38 157.922 144.38 157.922 144.38 158.299C144.38 158.487 144.191 158.675 144.002 159.24C143.813 159.617 143.624 160.182 143.245 160.935C142.111 162.442 141.166 163.948 140.221 165.078C139.843 165.643 139.465 166.208 139.087 166.584C138.709 166.961 138.331 167.526 137.953 167.903C137.575 168.279 137.386 168.656 137.008 168.844C136.819 169.032 136.63 169.221 136.441 169.221C136.441 169.221 136.441 169.032 136.63 168.844C136.819 168.656 137.008 168.279 137.197 167.714C137.386 167.338 137.764 166.773 137.953 166.208C138.331 165.643 138.52 165.078 138.898 164.513C139.087 163.948 139.465 163.571 139.654 163.006C139.843 162.63 140.032 162.065 140.221 161.688C140.41 161.312 140.599 160.935 140.599 160.558C140.599 160.182 140.788 159.993 140.788 159.805C140.788 159.429 140.599 159.052 140.221 158.675C140.032 158.487 139.654 158.299 139.276 158.11C138.898 157.922 138.52 157.922 138.142 157.922C137.764 157.922 137.575 158.11 137.575 158.299C137.575 158.487 137.575 158.864 137.386 159.052C137.386 159.429 137.197 159.617 137.008 159.993C136.819 160.37 136.63 160.747 136.441 161.123C136.252 161.5 136.063 161.877 135.874 162.253C135.685 162.63 135.307 163.006 134.929 163.383C134.362 163.948 133.795 164.513 133.228 165.266C132.661 165.831 131.905 166.584 131.149 167.149C131.905 166.208 132.661 165.266 133.039 164.325C133.606 163.195 133.795 162.065 133.795 161.123C133.795 160.747 133.795 160.37 133.795 159.993C133.795 159.617 133.606 159.24 133.417 158.864C133.228 158.487 133.039 158.11 132.661 157.922C132.283 157.734 131.905 157.545 131.338 157.545C130.96 157.545 130.582 157.545 130.203 157.734C129.825 157.922 129.258 157.922 128.88 158.299C128.502 158.487 128.124 158.864 127.746 159.052C127.368 159.429 126.99 159.617 126.612 159.993C126.612 159.993 126.801 159.805 126.801 159.429C126.99 159.052 127.179 158.675 127.368 158.11C127.746 157.545 127.935 156.98 128.313 156.416C128.691 155.851 128.88 155.286 129.069 154.721C129.258 154.156 129.447 153.591 129.636 153.214C129.825 152.838 129.825 152.461 129.825 152.273C129.825 152.084 129.825 151.708 129.636 151.519C129.447 151.331 129.258 150.954 129.069 150.766C128.88 150.578 128.502 150.39 128.313 150.201C128.124 150.013 127.746 150.013 127.557 150.013C127.368 150.013 127.179 150.013 126.99 150.201C126.801 150.39 126.801 150.578 126.801 150.954C126.801 151.143 126.801 151.519 126.612 151.896C126.423 152.273 126.234 152.838 126.045 153.591C125.856 154.344 125.478 154.909 125.1 155.662C124.722 156.416 124.344 157.169 123.966 157.922C123.588 158.864 123.21 159.805 122.643 160.558C122.454 160.935 122.265 161.5 122.076 161.877C121.887 162.253 121.509 162.818 121.32 163.383C120.942 163.948 120.564 164.701 120.186 165.266C119.808 165.831 119.43 166.584 119.052 167.149C118.674 167.714 118.296 168.091 117.918 168.467C117.54 168.844 117.351 169.032 117.161 169.032C117.161 169.032 117.161 169.032 117.161 168.844C117.161 168.656 117.161 168.467 117.351 168.091C117.351 167.714 117.54 167.526 117.729 167.149C117.918 166.773 117.918 166.396 118.107 166.019C118.296 165.643 118.485 165.266 118.485 164.89C118.296 164.701 118.485 164.325 118.674 163.948C118.863 163.571 118.863 163.383 118.863 163.195C118.863 163.006 118.863 163.006 118.674 162.818C118.485 162.63 118.296 162.442 118.107 162.442C117.918 162.253 117.54 162.253 117.351 162.065C117.161 161.877 116.783 161.877 116.594 161.877C116.405 161.877 116.216 161.877 116.027 161.877C115.838 161.877 115.838 162.065 115.838 162.065C115.838 162.065 115.838 162.442 115.649 162.818C115.46 163.195 115.271 163.76 115.082 164.325C114.893 164.89 114.515 165.454 114.326 166.019C114.137 166.584 113.57 167.149 113.381 167.714C113.003 168.279 112.625 168.656 112.247 169.032C111.869 169.409 111.491 169.597 111.113 169.597C110.735 169.597 110.546 169.409 110.546 168.844C110.546 168.467 110.546 167.903 110.735 167.338C110.924 166.773 111.113 166.019 111.491 165.454C111.68 164.89 112.058 164.136 112.436 163.571C112.814 163.006 113.192 162.442 113.57 161.877C113.948 160.935 114.326 160.558 114.704 160.182C115.082 159.805 115.46 159.617 115.838 159.617C116.216 159.617 116.405 159.617 116.594 159.805C116.783 159.993 116.972 159.993 116.972 160.182C116.972 160.37 117.161 160.37 117.161 160.558C117.161 160.747 117.161 160.747 117.161 160.747C117.161 160.747 117.161 160.935 117.351 160.935C117.54 160.935 117.54 161.123 117.729 161.123C117.918 161.123 118.107 161.123 118.107 161.123C118.296 161.123 118.296 161.123 118.485 160.935C118.485 160.935 118.485 160.747 118.485 160.37C118.485 159.993 118.485 159.805 118.485 159.617C118.485 159.429 118.296 159.052 118.296 158.675C118.107 158.299 117.918 158.11 117.729 157.922C117.54 157.734 117.161 157.545 116.783 157.357C116.405 157.169 115.838 157.169 115.271 157.169C114.515 157.169 113.948 157.357 113.192 157.545C112.436 157.734 111.869 158.11 111.302 158.675C110.735 159.052 110.168 159.617 109.601 160.37C109.034 160.935 108.656 161.688 108.278 162.253C107.9 162.818 107.711 163.571 107.522 164.136C107.333 164.513 107.144 164.89 106.766 165.266C106.388 165.831 105.821 166.396 105.443 166.961C105.065 167.526 104.687 167.903 104.309 168.279C103.93 168.656 103.552 168.844 103.363 168.844C103.363 168.844 103.363 168.844 103.363 168.656C103.363 168.279 103.363 167.903 103.552 167.338C103.741 166.773 103.93 166.208 104.309 165.454C104.687 164.701 104.876 163.948 105.254 163.195C105.632 162.442 106.01 161.5 106.388 160.747C106.766 159.993 107.144 159.052 107.522 158.299C107.9 157.545 108.278 156.792 108.467 156.039C108.845 155.286 109.034 154.721 109.223 154.156C109.412 153.591 109.412 153.214 109.412 152.838C109.412 152.461 109.223 152.273 108.845 151.896C108.467 151.519 108.089 151.331 107.711 151.143C107.711 150.954 107.522 150.766 107.144 150.766C106.766 150.766 106.577 150.766 106.577 151.143C106.577 151.519 106.577 151.708 106.388 152.273C106.199 152.838 106.01 153.403 105.632 154.156C105.254 154.909 105.065 155.662 104.687 156.416C104.309 157.169 103.93 158.11 103.552 158.864C103.174 159.805 102.607 160.747 102.229 161.688C102.04 162.065 101.851 162.442 101.851 162.63C101.473 163.006 101.473 163.195 101.284 163.571C100.906 164.136 100.528 164.89 100.15 165.454C99.7721 166.019 99.3941 166.773 99.0161 167.338C98.6381 167.903 98.26 168.279 97.882 168.656C97.504 169.032 97.315 169.221 97.1259 169.221C97.1259 169.221 97.1259 169.221 97.1259 169.032C97.1259 168.844 97.1259 168.656 97.315 168.279C97.315 167.903 97.504 167.714 97.693 167.338C97.882 166.961 97.882 166.584 98.071 166.208C98.26 165.831 98.449 165.454 98.449 165.078C98.6381 164.513 98.8271 164.136 99.0161 163.76C99.2051 163.383 99.2051 163.195 99.2051 163.006C99.2051 162.818 99.2051 162.818 99.0161 162.63C98.8271 162.442 98.6381 162.253 98.449 162.253C98.26 162.065 98.071 161.877 97.693 161.877C97.504 161.688 97.1259 161.688 96.9369 161.688C96.7479 161.688 96.5589 161.688 96.3699 161.688C96.1809 161.688 96.1809 161.877 96.1809 161.877C96.1809 161.877 96.1809 162.253 95.9919 162.63C95.8028 163.006 95.6138 163.571 95.4248 164.136C95.2358 164.701 94.8578 165.266 94.6688 165.831C94.4797 166.396 93.9127 166.961 93.7237 167.526C93.3457 168.091 92.9676 168.467 92.5896 168.844C92.2116 169.221 91.8335 169.409 91.4555 169.409C91.0775 169.409 90.8885 169.221 90.8885 168.656C90.8885 168.279 90.8885 167.714 91.0775 167.149C91.2665 166.584 91.4555 165.831 91.8335 165.266C92.0226 164.701 92.4006 163.948 92.7786 163.383C93.1566 162.818 93.5347 162.253 93.9127 161.688C94.2907 161.123 94.6688 160.747 95.2358 160.37C95.8028 159.993 95.9919 159.805 96.3699 159.805C96.7479 159.805 96.9369 159.805 97.1259 159.993C97.315 160.182 97.504 160.182 97.504 160.37C97.693 160.37 97.693 160.558 97.693 160.558C97.693 160.747 97.693 160.747 97.693 160.747C97.693 160.747 97.693 160.935 97.882 160.935C98.071 160.935 98.071 161.123 98.26 161.123C98.449 161.123 98.6381 161.123 98.6381 161.123C98.8271 161.123 98.8271 161.123 99.0161 160.935C99.0161 160.935 99.0161 160.747 99.0161 160.37C99.0161 159.993 99.0161 159.805 99.0161 159.617C99.0161 159.429 98.8271 159.052 98.8271 158.675C98.6381 158.299 98.449 158.11 98.26 157.922C98.071 157.734 97.693 157.545 97.315 157.357C96.9369 157.169 96.3699 157.169 95.8028 157.169C95.0468 157.169 94.4797 157.357 93.7237 157.545C92.9676 157.734 92.4006 158.11 91.8335 158.675C91.2665 159.052 90.6995 159.617 90.1324 160.37C89.5654 160.935 89.1873 161.688 88.8093 162.253C88.4313 163.006 88.0532 163.571 87.8642 164.325C87.6752 165.078 87.4862 165.643 87.4862 166.396C87.4862 166.961 87.4862 167.526 87.6752 167.903C87.8642 168.467 88.0532 168.844 88.4313 169.409C88.8093 169.974 89.1873 170.162 89.5654 170.539C89.9434 170.727 90.5104 170.916 91.0775 170.916C91.4555 170.916 91.6445 170.916 92.0226 170.727C92.4006 170.539 92.5896 170.351 92.9676 170.162C93.1566 169.974 93.5347 169.786 93.7237 169.409C93.9127 169.032 94.1017 169.032 94.2907 168.656C94.4797 169.032 94.6688 169.409 95.0468 169.786C95.2358 169.974 95.6138 170.351 95.8028 170.539C96.1809 170.727 96.5589 170.916 96.9369 170.916C97.315 170.916 97.693 170.727 98.26 170.351C98.8271 169.974 99.2051 169.409 99.7722 168.844C99.9612 168.656 99.9612 168.467 100.15 168.467C100.15 169.221 100.339 169.786 100.717 170.162C101.284 170.727 101.851 170.916 102.607 170.916C103.174 170.916 103.741 170.727 104.309 170.351C104.876 169.974 105.443 169.409 106.01 168.844C106.388 168.467 106.955 167.903 107.333 167.338C107.333 167.526 107.333 167.903 107.522 168.091C107.711 168.656 107.9 169.032 108.278 169.597C108.656 170.162 109.034 170.351 109.412 170.727C109.79 170.916 110.357 171.104 110.924 171.104C111.302 171.104 111.491 171.104 111.869 170.916C112.247 170.727 112.436 170.539 112.814 170.351C113.003 170.162 113.381 169.974 113.57 169.597C113.759 169.221 113.948 169.221 114.137 168.844C114.326 169.221 114.515 169.597 114.893 169.974C115.082 170.162 115.46 170.539 115.649 170.727C116.027 170.916 116.405 171.104 116.783 171.104C117.161 171.104 117.54 170.916 118.107 170.539C118.674 170.162 119.052 169.597 119.619 169.032C119.997 168.656 120.186 168.279 120.564 167.714C120.753 168.656 120.942 169.409 121.509 169.974C122.265 170.727 123.21 171.104 124.722 171.104C126.045 171.104 127.179 170.916 128.313 170.539C129.447 170.162 130.582 169.597 131.527 169.032C132.472 168.467 133.417 167.714 134.173 166.961L134.362 166.773C134.173 167.149 134.173 167.526 134.173 167.903C134.173 168.279 134.173 168.467 134.362 168.844C134.551 169.221 134.74 169.597 134.929 169.786C135.118 169.974 135.496 170.351 135.685 170.539C136.063 170.727 136.252 170.916 136.63 170.916C136.819 170.916 137.197 170.727 137.386 170.539C137.764 170.351 138.142 169.974 138.52 169.597C138.898 169.221 139.276 168.844 139.654 168.279C140.032 167.714 140.41 167.338 140.788 166.773C140.788 167.149 140.599 167.526 140.599 167.714C140.599 168.091 140.599 168.279 140.788 168.656C140.977 169.032 141.166 169.409 141.355 169.597C141.544 169.974 141.922 170.162 142.111 170.351C142.3 170.539 142.678 170.727 143.056 170.727C143.624 170.727 144.002 170.539 144.569 170.162C145.136 169.786 145.514 169.409 146.081 168.844C146.27 168.656 146.459 168.467 146.459 168.279C146.459 168.844 146.648 169.597 147.026 169.974C147.593 170.539 148.16 170.727 148.916 170.727C149.483 170.727 150.05 170.539 150.617 170.162C151.184 169.786 151.751 169.221 152.318 168.656C152.696 168.279 152.885 168.091 153.263 167.714C153.263 168.656 153.452 169.409 154.019 169.974C154.586 170.539 155.153 170.727 155.909 170.727C156.477 170.727 157.044 170.539 157.611 170.162C158.178 169.786 158.745 169.221 159.312 168.656C159.879 168.091 160.257 167.526 160.824 166.961C160.824 167.149 160.824 167.338 161.013 167.526C161.202 168.091 161.391 168.656 161.769 169.032C162.147 169.597 162.525 169.974 163.092 170.162C163.659 170.351 164.226 170.727 164.982 170.727C165.927 170.727 166.683 170.539 167.628 170.162C168.573 169.786 169.14 169.221 169.897 168.656C170.653 168.091 171.22 167.338 171.787 166.584C172.354 165.831 172.921 165.078 173.299 164.325C173.677 163.571 174.055 163.006 174.433 162.442C174.811 161.877 175 161.312 175.189 161.123C175 161.312 175 161.123 175 160.935ZM165.927 162.818C166.305 162.065 166.683 161.5 167.061 160.935C167.439 160.37 167.817 159.993 168.384 159.617C168.762 159.24 169.14 159.052 169.519 159.052C169.519 159.052 169.708 159.052 169.708 159.24C169.708 159.617 169.519 159.993 169.33 160.558C169.14 161.123 168.762 161.688 168.195 162.253C167.817 162.818 167.25 163.383 166.683 163.948C166.116 164.513 165.549 164.89 164.982 165.078C165.171 164.325 165.549 163.571 165.927 162.818ZM129.825 161.877C129.636 162.442 129.447 163.195 129.069 163.76C128.691 164.513 128.502 165.078 128.124 165.643C127.746 166.208 127.368 166.773 126.99 167.338C126.612 167.903 126.234 168.279 125.667 168.467C125.289 168.844 124.911 168.844 124.533 168.844C124.344 168.844 124.155 168.844 123.966 168.656C123.777 168.467 123.777 168.467 123.588 168.279C123.399 168.091 123.399 167.903 123.399 167.714C123.399 167.526 123.399 167.338 123.399 167.149C123.399 166.773 123.588 166.208 123.777 165.831C123.966 165.266 124.344 164.701 124.722 164.136C125.1 163.571 125.478 163.006 126.045 162.442C126.612 161.877 126.99 161.5 127.557 160.935C127.935 160.747 128.502 160.37 128.88 160.182C129.258 159.993 129.636 159.805 130.014 159.805C130.203 159.805 130.203 159.993 130.203 160.182C130.203 160.558 130.014 161.123 129.825 161.877Z" fill="#FDC055"/>
</g>
<path d="M64 207C85.5 224 85.9762 193.128 114.5 202.5C149.5 214 166 217 181 202.5" stroke="#FDC055" stroke-width="4" stroke-linejoin="round"/>
<defs>
<clipPath id="clip0">
<rect width="117" height="29" fill="white" transform="translate(58 147)"/>
</clipPath>
</defs>
</svg>
