<svg width="277" height="277" viewBox="0 0 277 277" fill="none" xmlns="http://www.w3.org/2000/svg">
<g clip-path="url(#clip0)">
<path d="M138.5 87.2183C142.257 87.2183 145.289 90.2508 145.289 94.0075V96.4969C145.289 100.254 142.257 103.286 138.5 103.286C134.743 103.286 131.711 100.254 131.711 96.4969V94.0075C131.711 90.2508 134.743 87.2183 138.5 87.2183ZM6.78922 13.5327H49.4255V62.415L32.7693 80.2933C30.2346 83.0089 30.3704 87.3088 33.0861 89.8434C35.8018 92.3781 40.1016 92.2423 42.6363 89.5266L56.1694 74.9977L69.7026 89.5266C72.2373 92.2423 76.5371 92.4233 79.2528 89.8434C81.9685 87.3088 82.1495 83.0089 79.5696 80.2933L62.9134 62.415V13.5327H131.711V62.415L115.055 80.2933C112.52 83.0089 112.656 87.3088 115.371 89.8434C118.087 92.3781 122.387 92.2423 124.922 89.5266L138.455 74.9977L151.988 89.5266C153.3 90.975 155.111 91.6992 156.921 91.6992C158.596 91.6992 160.225 91.1108 161.538 89.8887C164.254 87.3541 164.435 83.0542 161.855 80.3385L145.289 62.415V13.5327H214.087V62.415L197.43 80.2933C194.896 83.0089 195.032 87.3088 197.747 89.8434C200.463 92.3781 204.763 92.2423 207.297 89.5266L220.831 74.9977L234.364 89.5266C236.898 92.2423 241.198 92.4233 243.914 89.8434C246.63 87.3088 246.811 83.0089 244.231 80.2933L227.574 62.415V13.5327H270.211C273.967 13.5327 277 10.5001 277 6.74344C277 2.98674 273.967 -0.0457764 270.211 -0.0457764H6.78922C3.03252 -0.000514936 0 3.032 0 6.7887C0 10.5454 3.03252 13.5327 6.78922 13.5327ZM214.041 94.0075V96.4969C214.041 100.254 217.074 103.286 220.831 103.286C224.587 103.286 227.62 100.254 227.62 96.4969V94.0075C227.62 90.2508 224.587 87.2183 220.831 87.2183C217.074 87.2183 214.041 90.2508 214.041 94.0075ZM260.525 145.289V246.991H270.211C273.967 246.991 277 250.024 277 253.78C277 257.537 273.967 260.57 270.211 260.57H253.917C253.826 260.57 253.736 260.57 253.645 260.57H224.27L226.488 268.445C227.484 272.066 225.402 275.777 221.826 276.773C221.193 276.954 220.604 277.045 219.971 277.045C217.029 277.045 214.313 275.098 213.453 272.111L210.194 260.57H172.763L169.504 272.111C168.508 275.732 164.752 277.814 161.176 276.773C157.555 275.777 155.473 272.021 156.514 268.445L158.732 260.57H118.313L120.531 268.445C121.527 272.066 119.445 275.777 115.869 276.773C112.248 277.769 108.537 275.687 107.541 272.111L104.282 260.57H66.8511L63.5923 272.111C62.5966 275.732 58.8399 277.814 55.2642 276.773C51.6433 275.777 49.5613 272.021 50.6023 268.445L52.8201 260.57H23.3549C23.2644 260.57 23.1739 260.57 23.0833 260.57H6.78922C3.03252 260.57 0 257.537 0 253.78C0 250.024 3.03252 246.991 6.78922 246.991H16.4752V145.289H6.78922C3.03252 145.289 0 142.256 0 138.499C0 134.743 3.03252 131.71 6.78922 131.71H32.9503V122.024C32.9503 118.268 35.9828 115.235 39.7395 115.235C43.4962 115.235 46.5288 118.268 46.5288 122.024V131.71H63.6376C63.2755 130.896 63.0944 130.036 63.0944 129.085C63.0944 125.328 66.127 122.296 69.8837 122.296H92.6954C96.4521 122.296 99.4846 125.328 99.4846 129.085C99.4846 130.036 99.3036 130.896 98.9415 131.71H270.211C273.967 131.71 277 134.743 277 138.499C277 142.256 273.967 145.289 270.211 145.289H260.525ZM100.435 246.991L87.3546 200.598H83.6431L70.6078 246.991H100.435ZM78.3928 187.065C78.4833 187.065 78.5738 187.065 78.7096 187.065H92.3333C92.4239 187.065 92.5596 187.065 92.6502 187.065H107.949V175.795H63.0944V187.065H78.3928ZM206.392 246.991L193.357 200.598H189.645L176.61 246.991H206.392ZM184.35 187.065C184.44 187.065 184.576 187.065 184.667 187.065H198.336C198.426 187.065 198.562 187.065 198.652 187.065H213.951V175.795H169.097V187.065H184.35ZM246.992 145.289H30.0083V246.991H56.5768L69.6121 200.598H56.3052C52.5485 200.598 49.516 197.566 49.516 193.809V169.006C49.516 165.249 52.5485 162.216 56.3052 162.216H114.692C118.449 162.216 121.482 165.249 121.482 169.006V193.809C121.482 197.566 118.449 200.598 114.692 200.598H101.386L114.421 246.991H162.443L175.479 200.598H162.172C158.415 200.598 155.383 197.566 155.383 193.809V169.006C155.383 165.249 158.415 162.216 162.172 162.216H220.559C224.316 162.216 227.348 165.249 227.348 169.006V193.809C227.348 197.566 224.316 200.598 220.559 200.598H207.252L220.423 246.991H246.992V145.289ZM49.3802 94.0075V96.4969C49.3802 100.254 52.4127 103.286 56.1694 103.286C59.9261 103.286 62.9587 100.254 62.9587 96.4969V94.0075C62.9587 90.2508 59.9261 87.2183 56.1694 87.2183C52.4127 87.2183 49.3802 90.2508 49.3802 94.0075Z" fill="white"/>
<ellipse cx="56" cy="95" rx="8" ry="9" fill="#FDC055"/>
<ellipse cx="139" cy="95" rx="8" ry="9" fill="#FDC055"/>
<ellipse cx="220" cy="95" rx="8" ry="9" fill="#FDC055"/>
</g>
<defs>
<clipPath id="clip0">
<rect width="277" height="277" fill="white"/>
</clipPath>
</defs>
</svg>
