<svg width="558" height="280" viewBox="0 0 558 280" fill="none" xmlns="http://www.w3.org/2000/svg">
<g clip-path="url(#clip0)">
<path d="M50.2733 279.885C50.2923 279.905 500.883 279.828 500.883 279.828C500.883 279.828 502.179 277.157 503.819 273.666C505.02 271.071 506.526 267.637 508.089 263.497C508.375 262.734 508.68 261.932 508.966 261.112C509.366 259.967 509.786 258.765 510.186 257.544C510.339 257.086 510.491 256.628 510.644 256.151C511.54 253.328 512.417 250.313 513.237 247.127C513.294 246.898 513.351 246.688 513.408 246.459C513.713 245.238 513.999 243.979 514.285 242.72C514.438 242.014 514.59 241.289 514.743 240.583L514.781 240.431C514.838 240.163 514.895 239.896 514.933 239.629C515.944 234.497 516.725 229.021 517.126 223.298C517.202 222.287 517.259 221.275 517.297 220.264C517.354 219.234 517.373 218.204 517.393 217.154C517.526 210.668 517.107 203.933 515.963 197.084C515.524 194.413 514.952 191.703 514.266 188.994C513.77 187.01 513.198 185.045 512.55 183.061C512.436 182.698 512.321 182.317 512.188 181.954C510.701 177.547 508.871 173.121 506.602 168.752C506.392 168.351 506.202 167.969 505.992 167.569C504.295 164.402 502.389 161.235 500.234 158.125C500.006 157.8 499.796 157.495 499.567 157.171C498.309 155.397 496.974 153.622 495.564 151.867C493.505 149.31 491.255 146.792 488.834 144.293C485.479 140.839 482.142 137.711 478.844 134.887C477.49 133.723 476.137 132.597 474.783 131.529C473.62 130.613 472.477 129.736 471.333 128.896C471.275 128.839 471.199 128.801 471.142 128.743C468.492 126.797 465.861 125.023 463.249 123.421C462.715 123.096 462.182 122.772 461.648 122.467C459.093 120.959 456.558 119.605 454.041 118.403C453.488 118.136 452.954 117.888 452.402 117.64C435.224 109.817 419.325 108.806 405.236 110.104C394.35 111.115 384.57 113.5 376.143 115.198C375.591 115.312 375.038 115.427 374.504 115.522C369.032 116.59 364.152 117.296 359.977 117.01C353.304 116.571 347.871 112.527 342.037 106.536C341.618 106.097 341.179 105.658 340.76 105.2C337.347 101.594 333.782 97.3971 329.721 92.9326C328.978 92.1123 328.215 91.2919 327.453 90.4524C325.908 88.8116 324.307 87.1327 322.61 85.4538C322.343 85.1867 322.095 84.9386 321.829 84.6715C321.257 84.1183 320.685 83.5459 320.075 82.9926C319.808 82.7446 319.56 82.4966 319.293 82.2485C317.367 80.4361 315.347 78.6426 313.192 76.8492C303.889 69.1223 292.259 61.6625 276.874 55.958H276.855C270.354 53.5541 263.186 51.4554 255.236 49.7956C246.505 47.964 237.125 46.5903 227.497 45.789C225.171 45.5982 222.845 45.4265 220.501 45.312C217.984 45.1785 215.467 45.0831 212.932 45.0259C211.407 44.9877 209.901 44.9686 208.375 44.9686C204.62 44.9686 200.864 45.0449 197.127 45.2357C195.793 45.293 194.477 45.3884 193.162 45.4647C176.995 46.5903 161.42 49.662 148.265 55.1376C139.038 58.9724 104.321 76.1433 94.1217 105.181C90.8998 114.339 90.1372 124.699 93.3782 136.184C104.855 176.822 87.3728 181.897 65.4868 201.262C36.2418 227.133 26.8429 262.009 50.2733 279.885Z" fill="url(#paint0_radial)"/>
<path d="M208.261 279.256H194.897C194.172 278.645 195.392 277.272 196.651 277.176C197.204 277.138 197.89 277.253 198.691 277.424C198.881 274.982 199.93 263.993 203.876 264.432C208.318 264.928 203.876 269.278 202.618 271.834C201.684 273.742 200.711 276.47 200.254 277.768C200.616 277.844 200.997 277.92 201.379 277.997C201.97 276.184 204.162 270.079 206.946 270.442C210.225 270.861 208.909 273.303 206.583 274.753C204.887 275.822 202.79 277.329 201.798 278.073C202.637 278.207 203.514 278.302 204.41 278.283C206.698 278.207 207.823 278.893 208.261 279.256Z" fill="#BDFCF3"/>
<path d="M78.5077 279.256C78.5077 279.256 72.7692 263.478 68.7276 264.813C64.705 266.168 78.5077 279.256 78.5077 279.256Z" fill="#BDFCF3"/>
<path d="M76.3152 279.256C75.8195 279.256 66.6685 269.736 66.0584 272.235C65.4484 274.715 76.3152 279.256 76.3152 279.256Z" fill="#BDFCF3"/>
<path d="M86.0763 279.256C86.0763 279.256 82.2825 275.784 77.4973 276.68C72.693 277.577 70.6531 278.569 67.6409 277.882C64.6287 277.195 63.0845 279.237 63.0845 279.237H86.0763V279.256Z" fill="#BDFCF3"/>
<path d="M478.692 115.503L478.711 115.484C478.692 115.503 478.692 115.503 478.692 115.503Z" fill="#7F2722"/>
<path d="M291.84 115.179C291.84 115.179 297.483 108.825 287.836 107.623C278.171 106.421 276.531 98.7517 269.897 96.5004C263.758 94.4018 252.929 98.7708 251.938 100.621C251.938 100.621 254.55 108.31 252.682 114.511C250.813 120.711 261.356 127.294 265.073 126.549C265.073 126.549 258.63 127.084 255.56 125.271C255.56 125.271 260.765 130.232 266.808 127.999C272.852 125.767 278.304 124.565 279.238 127.446C280.173 130.327 291.84 115.179 291.84 115.179Z" fill="#DF6F5B"/>
<path d="M293.079 213.167C291.688 218.7 290.753 223.012 291.707 225.206C293.975 230.452 288.637 249.741 285.472 260.139C284.233 264.184 283.337 266.893 283.337 266.893H278.495C278.495 266.893 278.609 264.184 278.762 260.139C279.124 250.409 279.734 232.971 279.562 226.999C279.334 218.547 274.415 174.99 274.415 174.99C274.415 174.99 275.159 174.914 276.379 174.8C281.602 174.342 295.577 173.254 296.053 174.895C299.847 188.098 295.691 202.788 293.079 213.167Z" fill="#FFB27D"/>
<path d="M293.079 213.167C287.036 210.191 277.809 199.488 277.809 199.488C277.809 199.488 275.921 185.923 276.36 174.819C281.583 174.361 295.558 173.273 296.034 174.914C299.847 188.098 295.691 202.788 293.079 213.167Z" fill="#ED975D"/>
<path d="M277.103 132.159C277.561 132.025 278.037 130.346 278.419 128.553C278.876 126.397 279.219 124.05 279.219 124.05L281.297 124.088L286.826 124.203H287.284C287.017 125.405 286.845 126.53 286.75 127.561C286.578 129.411 286.674 130.957 286.883 132.063C287.093 133.208 287.455 133.914 287.817 134.105C288.122 134.238 276.569 132.082 277.103 132.159Z" fill="#FFB27D"/>
<path d="M286.883 132.063C283.452 131.224 279.219 124.05 279.219 124.05C279.848 123.878 280.554 123.917 281.297 124.088C283.185 124.546 285.263 125.996 286.75 127.561C286.578 129.411 286.674 130.938 286.883 132.063Z" fill="#ED975D"/>
<path d="M288.504 128.667C288.504 128.667 278.628 128.495 278.838 122.333C279.048 116.19 277.904 112.011 284.214 111.878C290.525 111.725 291.668 114.129 292.107 116.19C292.545 118.25 291.077 128.553 288.504 128.667Z" fill="#FFB27D"/>
<path d="M272.089 131.453C272.089 131.453 283.147 131.911 292.45 134.753C292.45 134.753 295.92 145.189 293.194 153.26C290.468 161.33 298.703 176.86 298.703 176.86C298.703 176.86 275.082 179.302 274.434 176.135C273.786 172.968 266.237 146.239 272.089 131.453Z" fill="#FFB27D"/>
<path d="M340.245 245.525L336.127 249.703C336.127 249.703 333 247.108 328.749 243.579C319.808 236.138 305.872 224.538 305.738 224.347C296.93 215.457 281.278 173.445 281.278 173.445C281.278 173.445 283.566 168.771 295.52 168.313C300.4 168.122 304.251 175.506 307.206 184.587C310.6 194.985 312.868 207.634 314.241 213.739C314.432 214.541 314.756 215.304 315.213 215.972C315.804 216.83 316.624 217.555 317.577 218.051C324.135 221.447 330.903 230.51 335.307 237.302C338.338 241.957 340.245 245.525 340.245 245.525Z" fill="#FFB27D"/>
<path d="M290.163 134.105C290.163 134.105 305.738 126.855 306.692 125.328C307.645 123.802 307.874 105.296 307.492 102.682H309.913C309.913 102.682 314.622 123.02 313.269 127.98C311.896 132.941 292.431 143.243 292.431 143.243L290.163 134.105Z" fill="#FFB27D"/>
<path d="M315.232 215.972C312.449 215.743 299.504 189.49 298.703 188.937C298.703 188.937 303.241 186.075 307.225 184.568C310.619 194.966 312.887 207.615 314.26 213.72C314.432 214.56 314.775 215.323 315.232 215.972Z" fill="#ED975D"/>
<path d="M270.411 134.276C270.411 134.276 271.193 131.167 254.493 150.379L239.222 142.843L237.754 144.484C237.754 144.484 253.387 158.64 255.427 158.01C257.467 157.362 270.411 145.876 270.411 145.876V134.276Z" fill="#FFB27D"/>
<path d="M305.357 168.313C300.324 161.788 297.369 152.993 295.634 146.086C295.615 146.029 295.596 145.972 295.596 145.914C303.145 140.572 299.199 129.755 299.199 129.755C295.92 130.422 288.123 133.628 288.104 133.628C288.104 133.628 285.32 137.386 281.355 136.833C277.389 136.28 276.512 131.815 276.512 131.815C276.493 131.815 272.547 131.014 270.183 131.815C268.753 132.311 259.469 140 259.411 140.744C259.354 141.469 262.557 149.787 268.886 151.142C268.181 172.3 274.415 202.464 274.415 202.464C291.592 203.952 305.147 194.298 311.591 188.536C314.26 186.152 315.709 184.434 315.709 184.434C315.709 184.434 311.419 176.154 305.357 168.313Z" fill="#4DA8A1"/>
<path d="M285.778 124.603C285.778 124.603 286.025 125.557 286.674 125.729C287.322 125.882 289.038 126.111 289.19 125.977C289.343 125.863 289.877 125.023 289.877 125.023C289.877 125.023 287.15 124.317 285.778 124.603Z" fill="white"/>
<path d="M307.511 102.701C307.511 102.701 306.482 102.434 306.31 100.698C306.215 99.534 305.681 98.7517 305.929 98.6945C306.177 98.6373 306.863 99.9346 307.13 100.221C307.359 100.469 307.873 96.405 308.426 96.5004C308.979 96.5958 310.314 97.2827 309.913 102.701H307.511Z" fill="#FFB27D"/>
<path d="M239.222 142.843C239.222 142.843 237.239 139.542 236.648 138.893C235.466 137.596 232.549 137.1 232.473 137.768C232.378 138.416 234.475 139.084 234.78 140.534C234.856 140.935 233.922 140.267 233.369 140.038C233.026 139.905 232.873 140.076 233.064 140.286C234.055 141.355 234.666 142.518 235.523 142.862C236.362 143.205 237.773 144.503 237.773 144.503L239.222 142.843Z" fill="#FFB27D"/>
<path d="M284.024 275.364C281.66 276.032 279.81 277.558 278.514 278.55C277.218 279.542 269.401 280.42 268.41 279.294C267.418 278.168 271.632 276.032 273.004 275.345C274.377 274.658 278.514 266.912 278.514 266.912H283.356C283.337 266.893 286.369 274.696 284.024 275.364Z" fill="#FFB27D"/>
<path d="M344.878 262.047C343.009 262.199 342.838 258.365 340.245 256.304C337.671 254.263 336.127 249.722 336.127 249.722L340.245 245.544C340.245 245.544 345.526 247.299 345.43 250.18C345.335 253.061 347.947 255.579 348.405 257.716C348.881 259.834 346.746 261.894 344.878 262.047Z" fill="#FFB27D"/>
<path d="M291.84 115.178C291.84 115.178 290.372 116.304 285.797 115.178C281.202 114.053 281.946 123.077 277.961 121.951C273.958 120.826 267.571 108.367 276.531 108.177C285.473 108.005 290.468 109.798 291.84 115.178Z" fill="#DF6F5B"/>
<path d="M315.709 184.396C315.709 184.396 314.26 186.113 311.591 188.498C292.622 181.363 295.348 146.048 295.348 146.048C295.424 146.048 295.52 146.048 295.634 146.067C297.369 152.974 300.324 161.769 305.357 168.294C311.419 176.154 315.709 184.396 315.709 184.396Z" fill="#5EA7AA"/>
<path d="M283.795 265.481C283.509 266.378 283.509 267.351 283.795 268.247C284.538 270.499 285.739 274.887 284.005 275.364C281.641 276.032 279.791 277.558 278.495 278.55C277.199 279.542 269.382 280.42 268.391 279.294C267.399 278.168 271.613 276.032 272.985 275.345C274.015 274.83 276.627 270.289 277.847 268.095C278.266 267.332 278.514 266.473 278.552 265.596C278.59 264.413 278.666 262.524 278.762 260.158C278.762 260.158 283.089 262.39 285.473 260.158C284.786 262.428 284.195 264.298 283.795 265.481Z" fill="#C65447"/>
<path d="M344.878 262.047C343.009 262.199 342.838 258.365 340.245 256.304C338.377 254.835 337.061 252.05 336.47 250.619C336.222 249.989 335.803 249.455 335.288 249.016C334.087 248.024 331.685 246.021 328.749 243.579C328.749 243.579 330.312 238.217 335.307 237.302C337.442 240.602 339.025 243.35 339.768 244.685C340.054 245.2 340.512 245.62 341.046 245.849C342.533 246.479 345.469 248.005 345.412 250.161C345.316 253.042 347.928 255.56 348.386 257.697C348.881 259.834 346.746 261.894 344.878 262.047Z" fill="#C65447"/>
<path d="M349.586 155.568C349.586 155.568 356.507 158.258 362.722 151.314C362.569 151.543 358.356 158.01 354.753 159.193C355.21 159.518 355.668 159.861 356.106 160.204C357.956 161.692 359.576 163.333 361.387 164.325C365.887 166.748 369.757 167.874 373.017 167.988C376.105 166.615 377.878 163.619 378.87 161.025C379.346 160.643 379.823 160.281 380.299 159.899C380.09 163.677 378.355 166.195 377.039 167.569C381.5 166.424 384.36 162.99 385.733 158.697C385.809 158.43 385.885 158.182 385.962 157.915C386 157.781 386.038 157.629 386.076 157.476C386.324 156.484 386.495 155.473 386.591 154.423C386.934 150.837 386.438 146.983 385.142 143.568C385.085 143.415 385.027 143.262 384.97 143.11V143.091C384.456 141.812 383.826 140.591 383.083 139.485C381.748 137.462 381.52 134.791 381.825 132.082C382.492 126.168 385.733 120.082 385.733 120.082C385.733 120.082 385.237 119.28 384.17 118.307C382.111 116.438 377.897 113.938 370.901 115.217C360.243 117.182 356.564 124.775 357.784 134.124C359.004 143.472 358.737 148.891 351.626 151.352C351.607 151.352 351.569 151.371 351.55 151.371C349.682 152.058 349.034 154.004 349.586 155.568Z" fill="#284A75"/>
<path d="M372.75 179.76C372.75 179.76 381.443 189.586 385.065 190.883C388.802 192.219 402.224 190.273 402.224 190.273C402.224 190.273 400.679 178.444 401.003 174.781C401.327 171.117 409.43 157.762 410.097 152.249C410.745 146.735 404.492 141.107 404.492 141.107C404.492 141.107 400.26 141.126 399.993 140.61C399.879 140.382 399.764 140.153 399.669 139.905C398.582 137.291 399.002 134.467 399.002 134.467L390.918 134.124C390.995 135.097 391.052 135.936 391.09 136.661C391.242 139.141 389.698 141.431 387.315 142.194C385.104 142.9 383.197 143.758 383.064 144.274C382.358 146.926 388.993 165.146 386.724 166.92C377.154 174.399 372.75 179.76 372.75 179.76Z" fill="#FFB27D"/>
<path d="M390.899 134.162C390.899 134.162 391.433 138.168 399.669 139.943C398.582 137.329 399.002 134.505 399.002 134.505L390.899 134.162Z" fill="#ED975D"/>
<path d="M401.633 133.513C401.633 133.513 393.683 139.275 390.175 134.257C386.667 129.24 383.274 126.607 388.211 122.715C393.149 118.823 395.475 120.044 397.057 121.436C398.621 122.829 403.615 131.892 401.633 133.513Z" fill="#FFB27D"/>
<path d="M397.667 132.063C397.667 132.063 398.201 132.597 399.707 131.567C399.707 131.567 400.984 130.689 400.527 130.022C400.527 130.003 398.944 130.289 397.667 132.063Z" fill="white"/>
<path d="M395.494 120.425C395.494 120.425 398.563 115.617 393.549 113.099C385.123 108.863 384.799 120.215 382.282 121.017C379.766 121.799 376.792 126.893 379.842 130.422C382.892 133.952 386.839 133.113 387.639 134.906C388.459 136.699 391.166 135.841 390.976 135.192C390.899 134.944 390.251 134.582 389.87 133.647C389.66 133.132 390.213 132.559 390.022 132.54C388.001 132.464 386.781 129.373 388.955 129.602C391.128 129.831 392.024 127.751 391.929 126.893C391.833 126.034 389.755 124.05 391.681 122.944C393.625 121.837 394.407 121.894 395.494 120.425Z" fill="#284A75"/>
<path d="M379.556 235.031C376.601 248.1 388.44 274.639 388.44 274.639H392.501C392.501 274.639 390.766 243.483 393.13 235.699C394.521 231.139 397.381 216.41 399.535 204.944C401.061 196.797 402.223 190.292 402.223 190.292H370.862C370.862 190.292 373.264 216.143 377.859 228.735C378.984 231.826 379.727 234.249 379.556 235.031Z" fill="#FFB27D"/>
<path d="M374.656 190.292C374.656 190.292 372.75 216.277 378.126 229.422L399.554 204.944C401.08 196.797 402.242 190.292 402.242 190.292H374.656Z" fill="#ED975D"/>
<path d="M331.094 206.509C345.392 219.94 371.454 230.948 371.454 230.948C377.345 228.125 399.231 188.25 399.231 188.25C399.231 188.25 389.851 180.218 375.762 178.177C371.187 177.509 368.708 181.267 367.45 186.648C366.497 190.73 366.23 195.729 366.287 200.461C366.382 208.722 367.45 216.124 367.45 216.124C367.45 216.124 363.161 211.202 356.64 210.114C339.063 207.176 333.763 203.57 333.763 203.57L331.094 206.509Z" fill="#FFB27D"/>
<path d="M404.511 141.126C404.511 141.126 417.018 139.103 418.409 131.663C419.401 126.454 422.184 108.081 422.184 108.081L425.044 107.681C425.044 107.681 426.245 129.85 424.91 133.227C423.214 137.501 410.574 149.711 410.574 149.711L404.511 141.126Z" fill="#FFB27D"/>
<path d="M389.336 142.118L383.064 144.312C383.064 144.312 373.284 156.465 370.519 157.858C367.012 159.632 351.779 160.51 351.779 160.51L351.607 162.532C351.607 162.532 365.849 165.928 372.75 164.554C374.542 164.192 388.078 153.241 388.078 153.241L389.336 142.118Z" fill="#FFB27D"/>
<path d="M331.094 206.509C331.094 206.509 327.147 203.399 325.851 202.082C324.536 200.766 320.78 195.691 321.428 194.546C322.076 193.401 325.394 197.084 328.634 197.332C331.875 197.58 332.314 198.629 333.038 201.109C333.763 203.59 334.182 204.505 334.182 204.505L331.094 206.509Z" fill="#FFB27D"/>
<path d="M365.162 164.726C365.162 164.726 372.101 165.375 373.245 164.917C374.389 164.459 376.639 162.761 378.85 161.025C379.327 160.643 379.804 160.281 380.28 159.899C382.511 158.163 384.436 156.656 384.837 156.732C384.856 156.732 384.894 156.751 384.913 156.77C385.142 156.961 385.428 157.705 385.714 158.697C386.438 161.311 387.162 165.699 387.029 166.405C387.029 166.424 387.01 166.443 387.01 166.462C386.724 166.863 382.339 170.45 380.433 172.014C379.899 172.453 379.556 172.72 379.556 172.72C379.556 172.72 379.594 172.739 379.689 172.777C379.765 172.815 379.88 172.873 380.013 172.949C380.337 173.121 380.833 173.369 381.462 173.655C382.911 174.342 385.046 175.315 387.506 176.25C391.852 177.928 397.152 179.512 401.099 179.245C401.385 179.226 401.652 179.188 401.918 179.15C401.918 179.15 401.27 175.429 402.204 173.788C403.139 172.148 409.373 157.075 409.64 155.988C409.887 155.015 409.964 153.641 410.059 152.42C410.078 152.096 410.097 151.791 410.135 151.485C410.212 150.57 410.326 149.864 410.574 149.635C410.574 149.635 410.593 149.616 410.612 149.597L410.631 149.577C410.65 149.558 410.669 149.539 410.688 149.52C410.726 149.482 410.764 149.444 410.803 149.406C410.803 149.387 410.822 149.387 410.841 149.368C412.385 147.841 420.125 140.095 423.461 135.574C423.48 135.535 423.499 135.516 423.519 135.478C424.243 134.505 424.739 133.685 424.929 133.112C425.006 132.884 425.063 132.636 425.139 132.387C425.978 128.934 425.673 123.745 425.673 123.745C425.597 123.726 425.063 123.554 423.08 123.287C421.65 123.096 419.915 123.249 419.839 123.268C419.839 123.268 418.6 130.651 418.238 131.052C417.284 132.101 406.627 140.458 404.721 141.03C404.664 141.049 404.607 141.068 404.549 141.068H404.53C404.282 141.068 404.035 141.068 403.825 141.068C403.806 141.068 403.806 141.068 403.787 141.068C402.853 141.068 402.014 140.992 402.014 140.992C402.014 140.992 404.892 144.827 404.549 147.899C404.225 150.97 395.379 150.856 392.977 148.986C391.7 148.013 390.213 146.162 389.088 144.655C388.478 143.835 387.982 143.11 387.677 142.671C387.467 142.366 387.353 142.194 387.353 142.194C387.334 142.194 387.296 142.213 387.258 142.232C387.239 142.232 387.22 142.251 387.182 142.251C387.162 142.251 387.124 142.27 387.105 142.27C386.686 142.404 385.847 142.709 385.008 143.072C384.551 143.262 384.093 143.472 383.712 143.701C383.426 143.854 383.178 144.026 382.987 144.178C381.043 145.781 371.815 156.999 370.653 157.781C370.633 157.8 370.595 157.819 370.595 157.819C369.833 158.048 365.238 159.136 365.238 159.136C365.219 159.174 364.876 160.51 364.857 161.807C364.743 163.581 365.143 164.669 365.162 164.726Z" fill="#DF6F5B"/>
<path d="M392.52 274.639C392.52 274.639 396.523 277.329 398.563 277.73C400.603 278.13 404.454 278.435 404.778 279.714H387.906C387.906 279.714 387.506 277.443 388.44 274.639C389.393 271.834 392.52 274.639 392.52 274.639Z" fill="#FFB27D"/>
<path d="M366.287 200.48C367.126 199.583 371.682 195.977 388.821 198.324C388.821 198.324 378.05 185.98 367.45 186.667C366.497 190.73 366.23 195.748 366.287 200.48Z" fill="#ED975D"/>
<path d="M379.556 172.758C379.556 172.758 383.045 174.571 387.506 176.307C389.984 173.235 391.243 168.046 390.899 164.898C390.366 159.861 385.618 157.171 384.932 156.808C385.809 157.514 387.315 166.043 387.029 166.5C386.743 166.901 382.358 170.488 380.452 172.052C379.899 172.472 379.556 172.758 379.556 172.758Z" fill="#CA5F4C"/>
<path d="M410.574 149.692C411.165 149.101 423.824 136.585 424.91 133.208C424.929 133.189 408.648 143.434 410.574 149.692Z" fill="#CA5F4C"/>
<path d="M401.938 180.18C401.938 180.18 421.784 197.694 426.645 205.879C426.779 206.089 426.645 206.623 426.645 206.852C426.645 206.852 421.422 207.634 417.323 205.307C413.224 202.979 410.936 203.475 408.153 203.971C405.369 204.467 401.804 204.143 398.754 201.014C395.704 197.885 391.281 199.316 388.993 199.43C386.705 199.545 383.979 198.228 382.664 196.702C381.348 195.176 377.097 193.745 375.343 194.794C373.589 195.824 370.329 195.405 368.251 193.764C366.173 192.123 365.086 189.28 360.93 190.158C356.774 191.036 354.715 191.036 352.847 189.719C350.997 188.403 347.718 186.171 344.878 186.972C342.037 187.754 337.767 183.061 337.767 183.061C337.767 183.061 337.557 182.183 337.767 182.088C340.607 180.714 362.226 171.575 380.452 173.025C380.433 173.025 389.641 179.608 401.938 180.18Z" fill="#DF6F5B"/>
<path d="M337.767 182.069C337.767 182.069 337.976 182.298 338.339 182.641C339.54 183.805 342.399 186.342 344.573 186.037C344.687 186.018 344.782 185.999 344.878 185.98C347.718 185.198 350.997 187.43 352.847 188.746C354.696 190.063 356.774 190.063 360.93 189.185C361.845 188.994 362.608 188.975 363.275 189.09C365.372 189.452 366.402 191.112 367.774 192.371C367.927 192.505 368.079 192.657 368.251 192.772C369.357 193.649 370.825 194.184 372.197 194.336C373.398 194.47 374.542 194.298 375.343 193.821C375.896 193.497 376.715 193.401 377.612 193.497C379.385 193.688 381.482 194.565 382.473 195.538C382.549 195.595 382.606 195.672 382.664 195.729C383.979 197.255 386.705 198.572 388.993 198.457C390.633 198.381 393.34 197.637 395.875 198.343C396.886 198.629 397.877 199.144 398.754 200.041C400.336 201.643 402.052 202.521 403.711 202.903C405.274 203.265 406.799 203.227 408.134 202.979C409.945 202.655 411.565 202.33 413.605 202.807C414.692 203.055 415.893 203.513 417.304 204.334C421.403 206.661 426.626 205.879 426.626 205.879C422.451 198.018 401.919 179.207 401.919 179.207C389.641 178.615 380.433 172.033 380.433 172.033C360.892 170.488 337.767 182.069 337.767 182.069Z" fill="#F99746"/>
<path d="M403.711 202.922C405.274 203.284 406.799 203.246 408.134 202.998C409.945 202.674 411.565 202.349 413.605 202.826C413.491 202.674 405.865 192.925 404.893 193.554C403.94 194.165 401.633 201.682 403.711 202.922Z" fill="#EC8C51"/>
<path d="M382.473 195.538C382.549 195.596 382.606 195.672 382.664 195.729C383.979 197.255 386.705 198.572 388.993 198.457C390.633 198.381 393.34 197.637 395.875 198.343C395.818 198.209 391.891 189.757 389.889 189.471C388.154 189.223 382.93 192.905 382.473 195.538Z" fill="#EC8C51"/>
<path d="M338.319 182.66C339.52 183.824 342.38 186.361 344.553 186.056C344.649 186.037 344.763 186.018 344.858 185.999C345.068 185.904 358.585 180.142 359.271 178.844C359.939 177.642 341.846 180.943 338.319 182.66Z" fill="#EC8C51"/>
<path d="M352.847 188.746C354.696 190.063 356.774 190.063 360.93 189.185C361.845 188.994 362.608 188.975 363.275 189.09C363.275 189.09 371.225 184.511 370.882 183.08C370.519 181.649 352.847 187.773 352.847 188.746Z" fill="#EC8C51"/>
<path d="M367.774 192.371C367.927 192.524 368.079 192.657 368.251 192.772C369.357 193.649 370.824 194.184 372.197 194.336C373.398 194.47 374.542 194.298 375.343 193.821C375.896 193.497 376.715 193.401 377.611 193.497C378.126 193.039 382.32 189.261 381.52 188.326C380.662 187.315 367.298 190.998 367.774 192.371Z" fill="#EC8C51"/>
<path d="M422.108 108.062C422.108 108.062 421.917 105.811 421.098 104.284C420.278 102.739 423.214 99.801 424.224 99.4957C425.215 99.1714 425.94 99.3622 425.94 99.9536C425.94 100.545 424.548 101.537 424.815 102.396C425.082 103.254 425.463 104.246 425.387 105.296C425.311 106.345 425.063 107.681 425.063 107.681L422.108 108.062Z" fill="#FFB27D"/>
<path d="M352.255 160.491C352.255 160.491 350.806 159.937 349.644 159.155C348.481 158.373 345.869 160.471 345.526 161.235C345.182 161.998 345.278 162.608 345.735 162.646C346.212 162.704 347.127 161.654 347.794 161.96C348.462 162.246 349.224 162.646 350.063 162.665C350.902 162.704 352.008 162.608 352.008 162.608L352.255 160.491Z" fill="#FFB27D"/>
<path d="M519.68 204.963C519.68 204.963 518.003 206.222 516.077 206.127C514.647 206.051 513.179 204.792 513.122 204.696L512.074 206.738C512.074 206.738 514.743 208.188 516.954 207.653C517.641 207.482 518.708 206.757 519.185 206.222C519.719 205.631 519.68 204.963 519.68 204.963Z" fill="#42889E"/>
<path d="M519.452 200.842L522.254 199.526C522.254 199.526 522.14 205.498 517.316 207.539C517.297 207.539 520.214 203.303 519.452 200.842Z" fill="#42889E"/>
<path d="M42.9715 232.284C42.9715 232.284 40.4931 230.414 39.864 227.629C39.3874 225.568 40.5694 222.954 40.6838 222.84L37.3666 222.172C37.3666 222.172 36.3943 226.56 38.0529 229.499C38.5676 230.395 40.0356 231.635 40.9888 232.093C42.0183 232.608 42.9715 232.284 42.9715 232.284Z" fill="#42889E"/>
<path d="M48.71 230.281L51.7222 233.734C51.7222 233.734 43.2194 236.004 38.3389 229.975C38.3579 229.956 45.5071 232.379 48.71 230.281Z" fill="#42889E"/>
<path d="M353.915 68.9125C353.915 68.9125 353.552 65.9934 355.001 63.7231C356.088 62.025 358.623 61.1093 358.776 61.1093L357.041 58.4382C357.041 58.4382 353.419 60.6895 352.542 63.7421C352.275 64.677 352.408 66.4895 352.733 67.4434C353.076 68.4737 353.915 68.9125 353.915 68.9125Z" fill="#42889E"/>
<path d="M359.1 71.4691L358.756 75.8C358.756 75.8 351.588 71.5263 352.446 64.2382C352.446 64.2382 355.554 70.7059 359.1 71.4691Z" fill="#42889E"/>
<path d="M238.955 230.872C238.955 230.872 240.175 228.22 245.646 229.613C248.087 230.243 252.338 233.829 246.733 236.882C240.899 240.049 239.069 236.748 239.069 236.748C239.069 236.748 248.449 235.203 247.114 231.406C245.627 227.228 241.7 231.75 241.7 231.75C241.7 231.75 240.556 231.063 238.955 230.872Z" fill="#F1A34F"/>
<path d="M238.04 236.577C238.04 236.577 236.782 234.631 238.669 232.856L240.995 234.707C240.995 234.707 238.726 236.5 240.995 238.103C240.995 238.122 238.364 237.397 238.04 236.577Z" fill="#DB7714"/>
<path d="M325.527 142.69C325.527 142.69 328.711 140.477 331.113 143.778L333.744 142.652C333.744 142.652 332.447 140.591 327.338 141.507C324.021 142.099 325.527 142.69 325.527 142.69Z" fill="#5685D8"/>
<path d="M322.381 144.866C322.381 144.866 323.258 141.279 329.797 141.279C329.797 141.279 327.338 141.508 325.432 144.694L322.381 144.866Z" fill="#739AF0"/>
<path d="M412.194 204.658C412.194 204.658 414.501 203.189 414.749 201.434C414.749 201.434 416.999 201.548 417.494 202.292C417.494 202.292 416.465 205.211 415.245 205.765C415.245 205.745 412.499 205.936 412.194 204.658Z" fill="#F1A34F"/>
<path d="M233.884 73.5296C233.884 73.5296 232.378 72.5756 232.225 71.4309C232.225 71.4309 230.757 71.5072 230.452 71.9842C230.452 71.9842 231.119 73.873 231.92 74.2355C231.901 74.2355 233.674 74.369 233.884 73.5296Z" fill="#ED7D2B"/>
<path d="M412.804 237.225C412.804 237.225 414.844 235.928 415.073 234.364C415.073 234.364 417.075 234.478 417.494 235.127C417.494 235.127 416.579 237.721 415.493 238.198C415.493 238.198 413.071 238.351 412.804 237.225Z" fill="#42889E"/>
<path d="M218.537 208.207C218.537 208.207 228.279 211.584 231.482 211.164C231.482 211.164 231.691 209.523 228.87 207.997C226.048 206.47 223.608 201.357 222.083 201.739C220.558 202.12 218.518 203.513 218.518 203.513L218.537 208.207Z" fill="#163560"/>
<path d="M232.416 193.077C232.416 193.077 242.596 191.398 245.208 189.509C245.208 189.509 244.617 187.964 241.395 187.964C238.192 187.964 233.617 184.625 232.454 185.694C231.291 186.762 230.166 188.956 230.166 188.956L232.416 193.077Z" fill="#163560"/>
<path d="M218.556 208.207C215.792 208.111 213.18 207.997 210.739 207.863C173.602 205.669 172.515 197.408 172.515 197.408C166.338 178.463 191.16 159.67 191.16 159.67C191.16 159.67 206.221 157.552 205.611 166.405C205.02 175.258 184.183 192.657 184.183 192.657C191.122 193.306 202.389 197.217 210.129 200.155C215.067 202.025 218.556 203.513 218.556 203.513C218.556 203.513 219.204 204.639 219.109 205.898C218.994 207.272 218.556 208.207 218.556 208.207Z" fill="#336099"/>
<path d="M210.72 207.863C173.583 205.669 172.496 197.408 172.496 197.408C166.319 178.463 191.141 159.67 191.141 159.67C191.141 159.67 206.202 157.552 205.592 166.405C205.001 175.258 184.164 192.657 184.164 192.657C191.103 193.306 202.37 197.217 210.11 200.155C211.045 202.559 211.655 205.44 210.72 207.863Z" fill="#284A75"/>
<path d="M232.454 193.077C232.435 193.077 232.435 193.077 232.416 193.077C200.445 201.72 189.177 201.586 185.917 200.938C184.469 200.651 183.458 198.553 183.458 198.553C177.3 179.607 203.609 158.258 203.609 158.258C203.609 158.258 214.953 157.743 218.117 162.914C218.708 163.867 219.013 165.012 218.918 166.386C218.537 172.09 209.901 180.313 203.819 185.446C200.597 188.155 198.081 190.005 197.871 190.158H197.852C208.49 183.595 230.166 188.937 230.166 188.937C230.166 188.937 231.424 189.815 231.825 190.559C232.454 191.722 232.454 193.077 232.454 193.077Z" fill="#336099"/>
<path d="M245.513 84.8623C244.331 84.8051 241.738 88.5254 241.243 88.8307C240.747 89.1359 240.995 87.457 240.614 86.2932C240.232 85.1103 239.336 87.7813 239.336 89.4603C239.336 91.1392 240.614 92.4938 240.614 92.4938C240.595 92.78 240.499 93.0471 240.328 93.3142C238.802 95.8517 235.6 101.575 233.026 106.211C230.891 110.027 229.213 113.099 229.213 113.099C226.105 113.232 222.407 113.728 219.052 114.263C215.582 114.816 212.493 115.465 210.758 115.827C209.843 116.018 209.31 116.132 209.31 116.132C209.31 116.132 209.1 116.762 208.871 117.716C208.699 118.365 208.547 119.223 208.394 120.101C207.975 123.211 208.166 127.007 211.597 127.217C212.15 127.236 212.798 127.217 213.523 127.084C215.41 126.816 217.831 126.13 220.329 125.214C224.218 123.84 228.355 121.99 231.329 120.501C233.464 119.433 235.009 118.574 235.409 118.231C235.924 117.792 237.144 114.453 238.478 110.409C240.652 103.788 243.187 95.1839 243.588 93.8102C243.588 93.8102 247.076 88.0675 247.21 87.2662C247.305 86.484 246.676 84.9195 245.513 84.8623Z" fill="#FFB27D"/>
<path d="M202.141 70.973C201.112 70.6868 206.698 65.2875 203.171 65.3256C200.33 65.3638 197.223 71.4308 197.223 71.4308C196.746 72.2894 196.25 73.167 196.25 73.167C191.503 79.2531 188.529 84.1373 186.68 87.9531C183.077 95.3938 183.763 98.6944 183.763 98.6944C183.687 99.9155 183.801 101.442 184.068 103.178C185.021 110.371 188.091 120.73 188.796 123.058C188.892 123.382 188.93 123.554 188.93 123.554L197.318 117.525C197.394 116.972 197.394 116.304 197.299 115.541C197.165 114.11 196.746 112.336 196.231 110.485C196.212 110.39 196.155 110.294 196.136 110.199C195.335 107.413 194.268 104.437 193.334 101.995C193.162 101.575 193.028 101.175 192.857 100.793C192.819 100.717 192.781 100.621 192.762 100.564C191.846 98.2747 191.179 96.6911 191.179 96.6911C191.465 96.0806 191.77 95.4701 192.037 94.8405C192.075 94.726 192.132 94.6116 192.171 94.4971C192.361 94.0773 192.552 93.6576 192.704 93.2379C192.723 93.1425 192.781 93.0662 192.8 93.0089C192.838 92.9135 192.895 92.8181 192.914 92.7228C192.933 92.7037 192.933 92.6846 192.933 92.6846C195.793 85.7781 197.966 77.9939 198.862 74.5788C198.919 74.369 199.11 74.1019 199.377 73.8729C199.396 73.8729 203.571 72.0795 204.715 71.4499C205.802 70.8012 203.171 71.2591 202.141 70.973Z" fill="#FFB27D"/>
<path d="M203.056 140.172C203.056 140.172 191.732 128.4 182.028 121.246C181.361 119.452 180.999 117.067 180.999 117.067C180.446 118.059 180.541 119.338 180.713 120.311C178.082 118.46 175.623 117.01 173.602 116.323C172.915 112.374 176.709 108.234 176.709 108.234C173.449 109.55 172.134 113.9 171.695 115.903C171.352 115.884 171.028 115.884 170.723 115.942C170.723 115.942 170.399 102.625 190.741 102.625C198.653 102.625 197.528 88.8689 208.776 89.8609C208.776 89.8609 221.072 92.2649 218.785 103.006C216.497 113.748 220.253 116.151 221.568 118.555C222.903 120.921 217.336 137.768 203.056 140.172Z" fill="#DF6F5B"/>
<path d="M213.065 118.288L201.207 122.982L199.949 117.716C199.815 116.132 199.987 114.358 200.254 112.736C200.692 110.046 201.398 107.757 201.55 107.318C201.569 107.261 201.569 107.242 201.569 107.242H201.874L202.866 107.223L209.538 107.051C209.271 108.043 209.138 108.978 209.1 109.817C208.852 115.541 213.065 118.288 213.065 118.288Z" fill="#FFB27D"/>
<path d="M194.859 115.102C194.859 115.102 178.921 123.936 191.141 159.67L216.63 161.063C216.63 161.063 205.744 145.895 208.337 140.687C210.949 135.478 216.154 119.128 216.154 119.128L194.859 115.102Z" fill="#E5B0B4"/>
<path d="M238.478 110.504C238.478 110.504 236.267 117.964 235.199 118.574C234.132 119.166 220.157 126.34 215.925 126.931C215.925 126.931 214.438 127.084 213.923 127.332C213.847 127.37 213.771 127.408 213.752 127.465C213.752 127.465 213.752 127.484 213.733 127.503C213.428 128.286 209.672 141.087 209.596 144.483C209.538 146.849 219.948 162.074 219.833 163.791C219.814 163.944 219.795 164.077 219.719 164.211C219.128 165.508 216.268 165.394 213.904 164.154C212.665 163.505 210.434 162.475 207.899 161.712C205.173 160.872 202.103 160.319 199.587 160.834C194.782 161.826 189.845 160.586 188.11 155.282C186.394 149.978 186.623 139.122 186.146 136.89C185.651 134.677 185.212 127.694 188.167 123.077C188.167 123.077 188.529 122.333 187.919 120.788C187.309 119.242 182.81 103.025 183.477 98.1411C183.477 98.1411 183.668 93.3905 186.642 87.9721C186.642 87.9721 188.472 88.3918 190.054 89.7846C191.618 91.1964 192.647 92.6464 192.895 92.7036C192.895 92.7036 191.236 96.4049 191.332 96.7102C191.427 97.0154 197.032 112.946 197.337 113.862C197.337 113.862 199.549 113.671 200.025 114.148C200.025 114.148 199.835 118.708 210.187 114.93C210.187 114.93 210.835 114.835 210.854 115.369C210.854 115.369 224.218 113.232 228.851 112.908C228.851 112.908 229.099 112.889 230.528 110.199C232.244 106.994 232.931 106.25 232.931 106.25C232.931 106.25 237.201 106.23 238.478 110.504Z" fill="#FDC055"/>
<path d="M219.814 163.772C219.795 163.925 219.776 164.058 219.7 164.192C219.109 165.489 216.249 165.375 213.885 164.135C212.646 163.486 210.415 162.456 207.88 161.693C206.221 157.591 203.952 151.352 203.075 146.277C201.76 138.55 212.169 128.839 213.694 127.465C213.389 128.247 209.634 141.049 209.557 144.445C209.519 146.83 219.928 162.055 219.814 163.772Z" fill="#E1A439"/>
<path d="M209.081 109.817C209.081 109.817 203.533 112.641 200.235 112.736C200.673 110.046 201.379 107.757 201.531 107.318C201.646 107.28 201.76 107.261 201.855 107.242C202.084 107.184 202.313 107.165 202.542 107.184C202.637 107.184 202.732 107.204 202.847 107.204C205.611 107.528 209.081 109.817 209.081 109.817Z" fill="#ED975D"/>
<path d="M198.881 108.673C198.881 108.673 208.356 113.48 211.254 107.528C214.152 101.575 217.317 98.1984 211.407 94.8786C205.478 91.5589 203.19 93.257 201.741 95.0122C200.292 96.7484 196.498 107.28 198.881 108.673Z" fill="#FFB27D"/>
<path d="M206.317 94.8214C206.317 94.8214 209.195 97.6833 208.337 100.392C207.499 103.102 208.852 108.501 212.551 109.131C216.249 109.741 220.653 97.2254 215.773 94.8214C210.911 92.4175 202.942 91.2156 200.54 94.2491C198.138 97.2635 199.053 101.098 199.053 101.098C199.053 101.098 202.408 94.6497 206.317 94.8214Z" fill="#DF6F5B"/>
<path d="M202.542 106.707C202.542 106.707 202.16 107.356 200.464 106.669C200.464 106.669 199.053 106.116 199.339 105.353C199.339 105.372 200.902 105.296 202.542 106.707Z" fill="white"/>
<path d="M128.953 119.261L130.115 117.411C134.729 111.229 132.899 108.043 131.488 106.421C129.696 104.38 127.446 103.54 127.446 103.54C127.389 103.521 127.332 103.502 127.275 103.464C125.978 102.758 124.873 102.548 124.873 102.548C115.035 97.6452 108.954 116.59 110.193 118.174C111.432 119.757 115.226 120.616 115.226 120.616C115.074 120.349 114.978 119.853 114.978 119.853C115.874 121.093 119.992 121.837 119.992 121.837C119.134 120.234 118.944 118.861 119.115 117.716L121.479 118.174C121.727 120.005 122.318 121.837 123.043 122.772C124.472 124.603 128.171 125.214 128.171 125.214C128.056 124.985 128.076 124.394 128.076 124.394C128.114 124.794 128.705 125.214 128.705 125.214C129.143 125.328 130.192 125.119 130.192 125.119C130.192 125.119 128.037 124.546 128.953 119.261Z" fill="#284A75"/>
<path d="M114.997 129.774C114.978 129.774 114.978 129.793 114.997 129.774C114.94 129.774 114.94 129.774 114.997 129.774Z" fill="#FFB27D"/>
<path d="M126.417 126.492C126.55 127.732 126.722 128.839 126.798 129.373C126.97 130.556 115.703 129.793 114.978 129.793C115.474 129.583 116.999 124.718 117.495 122.886C118.086 120.635 118.543 118.212 118.543 118.212L126.493 118.708L126.97 118.746C126.684 119.834 126.474 120.864 126.322 121.799C126.303 121.932 126.284 122.066 126.264 122.18C126.131 123.23 126.245 124.947 126.417 126.492Z" fill="#FFB27D"/>
<path d="M126.417 126.492C120.85 124.871 118.486 118.441 118.486 118.441C120.831 118.517 123.9 120.139 126.303 121.799C126.283 121.932 126.264 122.066 126.245 122.18C126.131 123.23 126.245 124.947 126.417 126.492Z" fill="#ED975D"/>
<path d="M126.817 124.222C126.817 124.222 116.77 121.742 118.41 115.503C120.049 109.264 119.859 104.742 126.341 106.059C132.823 107.375 133.433 110.084 133.395 112.298C133.356 114.53 129.467 124.718 126.817 124.222Z" fill="#FFB27D"/>
<path d="M130.954 107.127C130.954 107.127 126.284 113.709 121.784 113.69C117.304 113.652 115.779 112.05 115.779 112.05C115.779 112.05 119.687 110.332 121.537 106.04C121.517 106.04 129.811 103.083 130.954 107.127Z" fill="#284A75"/>
<path d="M130.115 107.528C130.115 107.528 131.736 109.703 131.812 111.42C131.888 113.137 131.259 116.476 132.232 116.609C132.232 116.609 135.606 112.183 134.043 108.749C132.365 105.124 130.115 107.528 130.115 107.528Z" fill="#284A75"/>
<path d="M130.42 107.89C130.42 107.89 126.436 115.026 120.488 116.075C120.488 116.075 127.046 112.775 128.819 107.833C130.611 102.892 130.42 107.89 130.42 107.89Z" fill="#233862"/>
<path d="M125.254 120.234C125.254 120.234 125.387 121.188 125.978 121.417C126.588 121.646 128.19 122.047 128.361 121.952C128.533 121.856 129.124 121.112 129.124 121.112C129.124 121.112 126.588 120.12 125.254 120.234Z" fill="white"/>
<path d="M121.498 215.647C121.365 216.182 121.25 216.716 121.117 217.231C120.354 220.379 119.649 223.298 119.21 225.74C118.639 228.926 118.505 231.292 119.249 232.284C122.375 236.386 119.249 268.877 119.249 268.877L115.703 272.54C115.703 272.54 109.526 240.469 107.848 235.432C107.085 233.143 105.98 223.393 104.988 213.434C104.931 212.938 104.893 212.442 104.836 211.946C104.664 210.21 104.512 208.474 104.34 206.776C103.463 197.351 102.796 189.28 102.796 189.28C102.796 189.28 109.335 184.663 115.302 184.167C118.81 183.862 122.108 184.969 123.729 189.28C126.131 195.538 123.729 206.356 121.498 215.647Z" fill="#FFB27D"/>
<path d="M121.498 215.647C116.637 212.137 109.793 205.879 107.295 195.615C106.819 190.521 110.841 185.675 115.321 184.129C118.829 183.824 122.128 184.931 123.748 189.242C126.131 195.538 123.729 206.356 121.498 215.647Z" fill="#ED975D"/>
<path d="M139.247 153.699L163.154 159.88V162.666C163.154 162.666 139.362 162.379 137.818 159.727C136.292 157.075 139.247 153.699 139.247 153.699Z" fill="#FFB27D"/>
<path d="M163.154 245.792L162.029 250.409C162.029 250.409 129.677 233.696 125.502 230.472C123.824 229.174 121.594 222.172 119.535 214.255C116.465 202.445 113.777 188.594 113.777 188.594C113.777 188.594 118.314 171.137 130.459 181.821C137.722 188.212 136.597 200.537 135.797 210.114C135.263 216.544 134.882 221.733 137.303 223.088C141.993 225.721 155.795 237.798 160.142 246.116L163.154 245.792Z" fill="#FFB27D"/>
<path d="M108.287 168.218C99.8411 166.062 90.5566 152.954 90.5566 152.954L92.9397 150.894C95.399 153.794 105.637 158.812 105.637 158.812C105.58 156.16 105.656 153.737 105.827 151.524C106.971 136.528 112.614 131.529 114.159 130.422C114.406 130.251 114.559 130.174 114.559 130.174C114.559 130.174 114.559 130.289 114.578 130.499C114.597 130.938 114.635 131.834 114.692 133.074C114.959 142.232 115.341 170.011 108.287 168.218Z" fill="#FFB27D"/>
<path d="M114.978 150.207C114.54 160.91 112.938 171.499 108.287 170.831C102.586 169.992 101.099 164.669 100.794 160.7C100.604 158.239 100.87 156.293 100.87 156.293C100.87 156.293 103.673 156.274 104.131 155.854C106.285 153.851 105.656 134.295 106.723 132.273C107.791 130.251 114.711 128.934 114.711 128.934C114.711 128.934 115.417 139.638 114.978 150.207Z" fill="#F99746"/>
<path d="M114.978 150.207C114.54 160.91 112.938 171.499 108.287 170.831C102.586 169.992 101.099 164.669 100.794 160.7C102.186 160.624 104.664 160.281 105.637 158.793C107.047 156.656 111.413 142.862 111.413 142.862C111.413 142.862 113.129 145.953 114.978 150.207Z" fill="#ED7D2B"/>
<path d="M150.972 153.699C152.516 155.893 151.658 160.166 148.417 163.6C146.397 165.737 143.67 166.996 139.228 166.329C137.284 166.042 131.889 162.99 131.317 159.27C131.221 158.602 131.164 158.201 131.164 158.201C131.164 158.201 128.705 160.662 128.609 161.139C128.571 161.349 128.362 163.219 128.323 163.467C128.285 163.772 128.495 164.917 128.495 164.917C128.495 164.917 116.732 170.068 107.009 164.211C107.009 164.211 104.245 140.42 106.228 136.47C107.219 134.505 112.767 130.67 114.711 128.992C115.15 128.61 115.588 127.465 115.474 126.721C115.379 126.092 116.084 125.042 116.694 125.233C117.857 125.615 121.155 127.236 123.462 126.607C124.606 126.301 126.074 124.966 127.199 125.271C128.571 125.653 127.122 128.934 127.904 128.972C128.972 129.03 134.729 130.174 135.225 131.109C135.396 131.434 137.055 135.822 139.133 141.622C139.133 141.622 139.133 141.622 139.133 141.641C142.984 152.516 148.703 150.455 150.972 153.699Z" fill="#F99746"/>
<path d="M131.164 158.182C131.164 158.182 130.878 149.101 130.154 149.215C129.429 149.329 118.848 159.499 121.365 163.581C123.881 167.664 131.164 158.182 131.164 158.182Z" fill="#ED7D2B"/>
<path d="M139.247 195.386C139.247 195.386 135.167 196.645 129.181 197.484C121.746 198.515 111.356 198.877 102.091 195.386C102.091 195.386 101.328 181.573 103.52 174.38C105.713 167.168 106.742 163.734 106.742 163.734C106.742 163.734 115.55 165.947 124.491 164.23C125.75 163.982 127.008 163.677 128.247 163.257C128.247 163.257 133.757 174.971 135.282 180.008C136.788 185.007 139.247 195.386 139.247 195.386Z" fill="#336099"/>
<path d="M139.247 195.386C139.247 195.386 135.167 196.645 129.181 197.484C118.181 191.246 123.538 164.974 123.538 164.974C123.862 164.707 124.186 164.459 124.491 164.23C125.75 163.982 127.008 163.677 128.247 163.257C128.247 163.257 133.757 174.971 135.282 180.008C136.788 185.007 139.247 195.386 139.247 195.386Z" fill="#284A75"/>
<path d="M116.084 166.329C109.564 166.329 106.876 164.077 106.666 163.925L106.247 160.853C106.304 160.891 115.054 166.157 128.609 161.12L128.323 163.448C123.119 165.375 119.477 166.329 116.084 166.329Z" fill="#B64C41"/>
<path d="M163.154 159.88C163.154 159.88 167.539 157.724 169.293 157.514C171.028 157.304 173.964 157.228 173.964 157.514C173.964 157.8 170.818 159.747 169.979 159.88C169.141 160.014 167.539 161.216 168.035 161.349C168.53 161.483 171.104 160.891 171.142 161.349C171.18 161.807 169.579 162.074 169.293 162.437C169.007 162.78 168.035 163.2 166.472 162.99C164.908 162.78 163.173 162.685 163.173 162.685V159.88H163.154Z" fill="#FFB27D"/>
<path d="M92.9205 150.875L90.5375 152.954C90.5375 152.954 86.3052 149.864 86.0955 148.585V148.452C86.0955 147.135 88.7836 144.388 91.0141 144.293C91.2429 144.293 91.4526 144.35 91.6242 144.445C92.8062 145.189 92.9587 148.299 92.9396 149.902C92.9396 150.493 92.9205 150.875 92.9205 150.875Z" fill="#FFB27D"/>
<path d="M163.154 245.792L162.03 250.409C162.03 250.409 129.677 233.696 125.502 230.472C123.824 229.174 121.594 222.172 119.535 214.255C122.299 214.827 128.266 215.132 135.778 210.115C135.244 216.544 134.863 221.733 137.284 223.088C141.974 225.721 155.776 237.798 160.123 246.116L163.154 245.792Z" fill="#336099"/>
<path d="M169.541 247.585C169.541 247.585 169.522 247.585 169.503 247.585C169.35 247.547 168.683 247.337 168.245 246.269C167.959 245.563 167.863 244.99 167.596 244.304L166.51 242.415C165.366 240.908 164.965 241.27 164.965 241.27C164.965 241.27 164.66 241.652 164.222 242.167C163.497 243.006 162.373 244.17 161.591 244.456C161.038 244.666 160.676 245.01 160.466 245.334C160.199 245.735 160.123 246.116 160.123 246.116C160.123 246.116 162.468 246.517 162.258 247.681C161.858 249.913 161.953 250.333 161.991 250.409L162.01 250.428C162.01 250.428 166.014 252.527 167.291 252.927C169.56 253.652 170.761 255.198 171.485 255.904C171.791 256.19 172.191 256.323 172.61 256.247C173.201 256.152 173.983 255.961 174.155 255.598L169.541 247.585Z" fill="#F99746"/>
<path d="M119.249 232.284C122.375 236.386 119.249 268.877 119.249 268.877L115.703 272.54C115.703 272.54 109.526 240.469 107.848 235.432C107.085 233.143 105.98 223.393 104.988 213.434C107.943 214.751 115.169 217.632 121.098 217.25C120.335 220.398 119.63 223.317 119.191 225.759C118.638 228.926 118.505 231.292 119.249 232.284Z" fill="#284A75"/>
<path d="M122.833 274.162L120.926 275.192C120.221 275.44 119.649 275.516 118.944 275.784C117.876 276.203 117.113 277.005 117.075 277.138C116.542 279.332 115.76 279.199 115.76 279.199L108.058 279.275C107.696 279.084 108.306 277.539 108.611 277.253C109.335 276.528 111.508 276.89 112.309 274.639C112.748 273.38 114.959 269.43 114.959 269.43L114.978 269.411C115.054 269.373 115.455 269.297 117.685 269.755C118.829 269.984 119.306 267.656 119.306 267.656C119.306 267.656 119.668 267.732 120.068 268.019C120.393 268.247 120.717 268.61 120.926 269.182C121.193 269.984 122.337 271.128 123.138 271.891C123.634 272.349 123.996 272.655 123.996 272.655C123.996 272.655 124.358 273.074 122.833 274.162Z" fill="#F99746"/>
<path d="M557.371 280H0.62913C0.285968 280 0 279.714 0 279.37V279.18C0 278.836 0.285968 278.55 0.62913 278.55H557.39C557.733 278.55 558.019 278.836 558.019 279.18V279.37C558 279.714 557.714 280 557.371 280Z" fill="#42889E"/>
<path d="M127.427 38.5395C128.304 39.7987 128.972 41.325 129.448 43.0421C132.613 54.3749 127.771 73.5109 127.771 73.5109C127.771 73.5109 101.766 70.9543 95.0176 61.3386C89.9084 54.0696 89.6796 44.9118 93.7403 38.177C95.0558 36.002 96.8097 34.0751 98.9831 32.5297C107.962 26.2146 120.679 28.9238 127.427 38.5395Z" fill="#42889E"/>
<path d="M127.771 73.4913C127.771 73.4913 129.219 76.3531 130.344 75.838C131.45 75.3229 132.27 73.3196 131.774 72.7663C131.259 72.2131 127.771 73.4913 127.771 73.4913Z" fill="#42889E"/>
<path d="M128.19 73.4342L127.656 73.7967C127.542 73.873 127.389 73.8539 127.313 73.7394C127.237 73.625 127.256 73.4723 127.37 73.396L127.904 73.0335C128.018 72.9572 128.171 72.9763 128.247 73.0908C128.323 73.1862 128.304 73.3579 128.19 73.4342Z" fill="#F99746"/>
<path d="M150.972 99.3622C150.972 99.3622 150.724 98.8089 150.209 98.4082C149.866 98.1411 149.542 98.2556 149.542 98.2556C149.58 98.1602 153.851 88.0294 152.173 83.7176C151.258 81.3709 145.081 83.4123 140.124 85.0531C135.758 86.5031 132.289 88.3156 131.05 86.8084C129.906 85.4156 131.679 81.9814 132.88 79.2341C133.585 77.6124 134.386 75.7808 134.043 75.4183C133.623 74.9795 132.232 75.7617 131.126 76.3723C129.734 77.1545 128.514 77.8223 127.923 77.2499C126.855 76.2006 127.618 73.6822 127.656 73.5677L127.77 73.6058C127.77 73.6249 127.351 76.0861 128.228 76.9446C128.59 77.3071 129.887 76.5821 130.916 75.9907C132.365 75.1894 134.081 74.121 134.71 74.8078C135.225 75.342 134.31 77.0209 133.261 79.3867C132.174 81.9051 130.802 85.0149 131.755 86.236C132.441 87.1136 136.273 85.8353 139.972 84.6143C145.634 82.7446 151.982 80.3979 153.05 83.1071C153.794 84.9959 153.565 88.182 152.745 92.6465C152.192 95.8708 150.991 99.3431 150.972 99.3622Z" fill="#F99746"/>
<path d="M127.427 38.5391C128.304 39.7983 128.972 41.3246 129.448 43.0417C129.41 50.9212 123.176 57.0646 110.803 57.9994C85.1994 59.9264 93.7403 38.1575 93.7403 38.1575C95.0558 35.9825 96.8097 34.0556 98.9831 32.5102C107.962 26.2142 120.678 28.9234 127.427 38.5391Z" fill="#ABDDDA"/>
<path d="M116.694 34.6661C116.541 35.8299 112.881 37.6805 110.078 37.318C107.295 36.9555 105.884 34.8759 105.884 33.693C105.884 31.4227 109.202 30.9457 111.985 31.3082C114.787 31.6516 116.846 33.4832 116.694 34.6661Z" fill="#C5EFEB"/>
<path d="M315.156 23.2188C315.423 25.1267 315.27 27.2063 314.813 29.3813C311.839 43.7667 295.5 62.2158 295.5 62.2158C295.5 62.2158 268.124 44.4535 266.141 29.8964C264.635 18.888 269.63 8.60451 277.999 3.45324C280.706 1.79339 283.757 0.648664 287.055 0.209852C300.591 -1.64079 313.173 8.66174 315.156 23.2188Z" fill="#ED7D2B"/>
<path d="M295.5 62.2159C295.5 62.2159 295.481 66.2224 297.007 66.2987C298.532 66.356 300.591 64.6007 300.362 63.704C300.114 62.7882 295.5 62.2159 295.5 62.2159Z" fill="#ED7D2B"/>
<path d="M295.996 62.3685L295.195 62.483C295.024 62.502 294.871 62.3876 294.833 62.2159C294.814 62.0442 294.928 61.8915 295.1 61.8534L295.901 61.7389C296.072 61.7198 296.225 61.8343 296.263 62.006C296.301 62.1968 296.168 62.3494 295.996 62.3685Z" fill="#1C468A"/>
<path d="M306.443 104.246C306.443 104.246 306.482 103.502 306.138 102.758C305.91 102.281 305.471 102.205 305.471 102.205C305.586 102.11 316.109 93.3333 316.719 87.5716C317.043 84.4426 309.036 83.1644 302.592 82.1532C296.911 81.2565 292.012 81.2756 291.516 78.9098C291.039 76.6967 294.986 73.9112 297.884 71.5454C299.599 70.1526 301.544 68.5691 301.372 67.9777C301.163 67.2527 299.18 67.3099 297.578 67.3671C295.577 67.4244 293.842 67.4816 293.518 66.5086C292.946 64.7534 295.234 62.3685 295.329 62.254L295.443 62.3685C295.424 62.3876 293.556 64.8869 294.033 66.3369C294.223 66.9474 296.072 66.8711 297.559 66.8329C299.618 66.7566 302.135 66.5658 302.459 67.7106C302.707 68.6073 300.743 69.9237 298.227 71.9651C295.577 74.121 292.279 76.8111 292.622 78.719C292.87 80.0736 297.864 80.8749 302.669 81.6381C310.028 82.8019 318.416 83.8512 318.035 87.4762C317.768 89.9946 315.69 93.4097 312.239 97.8741C309.78 101.041 306.463 104.208 306.443 104.246Z" fill="#1C468A"/>
<path d="M315.156 23.2189C315.423 25.1267 315.27 27.2063 314.813 29.3813C310.256 38.1194 299.809 41.3437 285.549 35.2767C256.018 22.7419 277.98 3.47235 277.98 3.47235C280.687 1.81249 283.738 0.667766 287.036 0.228954C300.591 -1.64077 313.173 8.66177 315.156 23.2189Z" fill="#F99746"/>
<path d="M305.471 12.7446C304.632 13.9656 299.523 13.8893 296.625 11.8861C293.727 9.88279 293.365 6.77295 294.032 5.45651C295.329 2.93812 299.275 4.31179 302.173 6.31506C305.052 8.31833 306.31 11.5236 305.471 12.7446Z" fill="#FFB680"/>
<path d="M463.268 60.6514C462.601 61.5862 461.686 62.4448 460.618 63.2079C453.45 68.2829 438.77 69.6756 438.77 69.6756C438.77 69.6756 434.042 50.7113 439.113 43.5377C442.945 38.1194 449.332 35.6582 455.09 36.822C456.958 37.2036 458.75 37.9476 460.37 39.1114C467.043 43.8239 468.339 53.4778 463.268 60.6514Z" fill="#FFA412"/>
<path d="M438.77 69.6757C438.77 69.6757 437.131 71.4309 437.76 72.0796C438.408 72.7283 440.028 72.8046 440.276 72.3085C440.524 71.8125 438.77 69.6757 438.77 69.6757Z" fill="#FFA412"/>
<path d="M438.923 69.9427L438.522 69.6565C438.446 69.5993 438.427 69.4848 438.484 69.3894C438.541 69.3131 438.656 69.294 438.751 69.3513L439.151 69.6375C439.228 69.6947 439.247 69.8092 439.19 69.9046C439.113 69.9809 438.999 70 438.923 69.9427Z" fill="#F99746"/>
<path d="M426.397 92.5129C426.397 92.5129 426.722 92.2076 426.874 91.7307C426.969 91.4254 426.798 91.2156 426.798 91.2156C426.874 91.2156 435.072 91.6925 437.684 89.4222C439.094 88.182 436.12 84.3472 433.718 81.2755C431.602 78.5663 429.448 76.5821 430.21 75.3229C430.916 74.1591 433.756 74.5598 436.006 74.7124C437.321 74.8078 438.809 74.9032 438.98 74.5789C439.19 74.1782 438.294 73.396 437.569 72.7664C436.673 71.9842 435.892 71.2973 436.139 70.725C436.597 69.7138 438.58 69.6184 438.656 69.5993V69.6947C438.637 69.6947 436.807 70.019 436.425 70.8585C436.273 71.2019 437.093 71.9269 437.76 72.5184C438.694 73.3387 439.857 74.2736 439.552 74.9032C439.304 75.3993 437.893 75.1703 435.968 75.0368C433.928 74.9032 431.392 74.7124 430.763 75.7045C430.325 76.4104 432.174 78.7762 433.966 81.0847C436.711 84.5952 439.952 88.4873 438.313 89.9182C437.169 90.9103 434.862 91.559 431.526 92.0932C429.162 92.4748 426.417 92.5129 426.397 92.5129Z" fill="#F99746"/>
<path d="M463.268 60.6514C462.601 61.5862 461.686 62.4448 460.618 63.2079C455.07 65.173 449.179 62.3112 445.424 53.8402C437.626 36.2878 455.09 36.8411 455.09 36.8411C456.958 37.2226 458.75 37.9667 460.37 39.1305C467.043 43.8239 468.339 53.4777 463.268 60.6514Z" fill="#FDC055"/>
<path d="M463.306 52.1041C462.448 52.2949 460.237 50.1772 459.779 48.1167C459.322 46.0561 460.447 44.5489 461.266 44.2437C462.849 43.6713 464.031 45.8844 464.488 47.9449C464.927 50.0055 464.164 51.9133 463.306 52.1041Z" fill="#FFD599"/>
<path d="M437.703 163.505C437.703 163.505 436.082 161.54 435.205 161.254C434.328 160.968 432.651 159.67 432.422 160.204C432.193 160.739 433.566 161.578 433.49 162.189C433.413 162.799 429.181 163.791 429.2 164.44C429.219 165.089 430.191 166.672 431.812 166.481C433.432 166.31 437.531 165.318 438.37 165.756C439.209 166.195 437.703 163.505 437.703 163.505Z" fill="#FFB27D"/>
<path d="M463.821 278.626H481.342C482.6 277.768 480.998 269.449 480.998 269.449C480.998 269.449 476.213 267.637 475.393 271.319C474.574 275.001 469.312 276.184 466.509 276.623C464.603 276.947 464.012 277.997 463.821 278.626Z" fill="#284A75"/>
<path d="M468.53 193.669C468.53 193.669 469.312 203.494 470.246 215.323C471.504 231.368 474.898 271.186 474.898 271.186C474.898 271.186 477.128 273.094 482.047 272.044C482.047 272.044 486.241 258.307 487.499 242.644C487.519 242.396 487.538 242.129 487.557 241.862C488.72 225.912 490.531 192.314 490.531 192.314L468.53 193.669Z" fill="#4BA0A0"/>
<path d="M468.263 190.273C468.263 190.273 469.312 203.494 470.246 215.323L487.499 242.644C487.518 242.396 487.537 242.129 487.556 241.862C488.719 225.912 490.531 192.314 490.531 192.314L468.263 190.273Z" fill="#599DAD"/>
<path d="M478.882 144.331C480.789 145.342 482.657 145.399 484.277 145.056C485.764 144.751 487.023 144.083 487.938 143.51C488.872 142.919 489.406 142.404 489.406 142.404C489.406 142.404 489.349 142.308 489.234 142.118C488.662 141.145 486.966 137.672 487.728 132.101C487.747 132.025 487.194 132.14 486.355 132.33C483.877 132.922 478.882 134.334 478.653 134.391C478.653 134.391 478.596 135.555 478.386 137.672C478.367 137.863 478.348 138.054 478.329 138.245C478.31 138.493 478.272 138.76 478.253 139.027C477.986 141.221 478.882 144.331 478.882 144.331Z" fill="#FFB27D"/>
<path d="M478.348 137.672C482.047 138.531 487.576 133.055 487.576 133.055C487.175 132.75 486.756 132.521 486.317 132.33C483.839 132.922 478.844 134.334 478.615 134.391C478.615 134.391 478.558 135.574 478.348 137.672Z" fill="#ED975D"/>
<path d="M477.09 134.105C477.09 134.105 478.615 134.658 480.56 134.906C483.401 135.287 487.137 135.059 488.319 131.624C490.302 125.844 492.818 122.371 487.004 120.005C483.896 118.746 481.895 118.67 480.541 119.147C479.359 119.567 478.673 120.406 478.139 121.226C477.014 123.001 474.745 133.093 477.09 134.105Z" fill="#FFB27D"/>
<path d="M518.46 264.165C518.46 264.165 519.986 267.294 519.89 269.011C519.814 270.308 519.07 271.853 518.498 273.17C518.193 273.876 517.66 274.467 516.973 274.811C515.829 275.402 514.056 276.585 513.58 278.588H521.377C521.377 278.588 524.656 272.006 526.982 271.052C529.003 270.232 529.003 266.893 526.658 265.596C525.514 264.966 523.417 261.398 523.417 261.398L518.46 264.165Z" fill="#284A75"/>
<path d="M473.277 190.292C473.277 190.292 486.813 231.483 494.001 237.187C501.188 242.892 518.727 265.958 518.727 265.958C518.727 265.958 523.798 263.63 524.637 261.303C524.637 261.303 511.426 231.006 505.077 228.621C499.453 226.522 503.495 193.802 492.056 188.098C484.525 184.339 473.277 190.292 473.277 190.292Z" fill="#4BA0A0"/>
<path d="M473.563 121.684C476.938 124.107 481.589 121.723 483.038 122.371C484.487 123.02 484.754 125.443 484.773 126.206C484.792 126.969 484.907 127.637 486.87 127.16C487.194 127.084 487.423 127.103 487.576 127.198C488.395 127.675 487.347 130.022 487.042 130.537C487.042 130.537 486.584 132.216 487.595 133.036C487.709 133.132 489.692 133.99 494.439 126.721C495.182 125.576 495.907 123.001 494.744 120.54C493.6 118.059 488.777 115.675 484.697 114.396C483.172 113.919 482.028 113.938 481.151 114.263C479.664 114.797 478.882 116.209 478.101 117.602C476.785 119.986 473.563 121.684 473.563 121.684Z" fill="#A9453D"/>
<path d="M481.437 153.927C488.872 143.93 479.111 139.714 473.735 141.641C470.017 142.957 467.768 145.228 465.747 148.28C463.364 151.905 459.646 156.98 455.509 160.548L437.093 162.169L436.979 165.928C437.264 166.767 450.857 167.931 454.27 169.019C454.27 169 471.428 167.359 481.437 153.927Z" fill="#FDC055"/>
<path d="M469.255 191.15C469.255 191.15 476.614 193.745 485.383 193.802C487.099 193.821 489.539 193.478 491.541 193.153C493.6 192.81 495.24 192.448 495.24 192.448C497.013 192.047 498.957 190.94 498.69 188.937C497.89 182.813 498.404 166.787 498.004 156.77C498.004 156.77 497.985 154.824 499.224 153.45C499.434 153.222 497.584 143.091 495.545 141.202C494.363 140.114 488.929 139.542 488.51 139.637C488.376 139.618 488.262 139.58 488.128 139.561C488.128 139.561 482.371 142.69 478.177 140.343C478.177 140.343 472.057 141.755 470.303 143.606C469.693 144.255 467.272 148.185 467.215 152.497C467.119 158.525 467.348 165.356 467.348 165.356C466.948 171.881 464.717 191.15 469.255 191.15Z" fill="#FDC055"/>
<path d="M488.491 139.618C488.491 139.618 482.257 146.067 477.796 144.751C477.796 144.751 477.205 143.873 479.206 143.606C481.208 143.301 483.381 143.415 488.491 139.618Z" fill="#ED7D2B"/>
<path d="M491.541 193.153C493.6 192.81 495.24 192.447 495.24 192.447C497.013 192.047 498.957 190.94 498.69 188.937C497.89 182.813 498.404 166.787 498.004 156.77C498.004 156.77 497.985 154.824 499.224 153.451C497.279 155.168 491.98 160.624 488.052 164.688C482.581 170.316 482.18 180.619 491.541 193.153Z" fill="#E1A439"/>
<path d="M477.052 130.365C477.052 130.365 476.938 131.109 478.673 131.72C478.673 131.72 480.141 132.216 480.408 131.453C480.408 131.453 479.245 130.346 477.052 130.365Z" fill="white"/>
<path d="M474.726 179.283L476.194 179.054C476.766 178.902 477.185 178.635 477.204 178.1L477.3 175.238C477.319 174.781 477.033 174.342 476.594 174.189C475.203 173.712 473.944 172.567 474.249 170.812C474.249 170.812 475.05 166.634 475.069 166.5L480.464 166.653C480.483 166.787 481.132 171.003 481.132 171.003C481.456 172.606 480.007 173.846 478.558 174.227C478.139 174.342 477.834 174.704 477.814 175.143L477.719 178.043C477.7 178.615 478.1 178.883 478.71 179.092L480.102 179.417C480.217 179.417 480.217 179.55 480.102 179.55L474.688 179.379C474.612 179.436 474.612 179.34 474.726 179.283Z" fill="#7693CE"/>
<path d="M474.478 171.709C474.745 173.178 476.08 174.132 477.586 174.189C479.092 174.227 480.598 173.197 480.903 171.842C480.96 171.575 480.979 171.308 480.922 171.041C480.884 170.812 480.846 170.583 480.77 170.373C480.75 170.297 480.179 166.672 480.179 166.672L475.279 166.519L474.516 170.392C474.497 170.45 474.497 170.507 474.478 170.583L474.459 170.66C474.459 170.717 474.44 170.774 474.44 170.85C474.421 171.156 474.44 171.442 474.478 171.709Z" fill="#EBF3FA"/>
<path d="M474.478 171.709C474.745 173.178 476.08 174.132 477.586 174.189C479.092 174.227 480.598 173.197 480.903 171.842C480.312 171.747 478.634 171.556 477.338 171.766C476.461 171.919 475.336 171.823 474.478 171.709Z" fill="#C94C43"/>
<path opacity="0.7" d="M479.721 171.804C479.778 171.537 479.797 171.27 479.74 171.003C479.702 170.774 479.664 170.545 479.588 170.335C479.568 170.259 478.997 166.634 478.997 166.634L479.607 166.653C479.607 166.653 480.179 170.259 480.198 170.354C480.255 170.564 480.312 170.793 480.35 171.022C480.388 171.289 480.369 171.556 480.331 171.823C480.026 173.159 478.52 174.208 477.014 174.17C476.899 174.17 476.804 174.151 476.69 174.151C478.1 174.056 479.435 173.064 479.721 171.804Z" fill="white"/>
<path d="M483.305 175.849C483.305 175.849 478.31 173.636 477.052 174.342C475.775 175.048 474.192 177.509 474.917 178.463C475.622 179.417 483.629 178.463 483.629 178.463L483.305 175.849Z" fill="#FFB27D"/>
<path d="M513.77 176.04C505.21 145.59 495.564 141.183 495.564 141.183C495.564 141.183 490.988 148.337 490.607 152.458C490.302 155.797 499.777 167.645 503.819 171.823C503.819 171.823 484.678 174.189 483.801 174.666C482.924 175.143 481.018 176.994 481.647 179.321C481.647 179.321 504.677 180.104 508.28 179.817C514.133 179.379 513.77 176.04 513.77 176.04Z" fill="#FDC055"/>
<path d="M222.464 77.5552L219.032 99.3622C217.603 99.2668 216.268 98.9806 215.029 98.58C207.727 96.2524 203.533 89.7656 203.533 89.7656L222.464 77.5552Z" fill="#F99746"/>
<path d="M215.048 98.58C207.746 96.2524 203.552 89.7656 203.552 89.7656L222.483 77.5552C222.464 77.5552 213.18 87.5906 215.048 98.58Z" fill="#ED7D2B"/>
<path d="M493.409 118.88C492.132 119.09 490.931 119.185 489.806 119.204C482.352 119.452 478.692 116.571 478.692 116.571L489.368 99.9918L493.409 118.88Z" fill="#E1A439"/>
<path d="M489.806 119.223C482.352 119.471 478.692 116.59 478.692 116.59L489.368 100.011C489.387 99.9919 487.862 113.538 489.806 119.223Z" fill="#FDC055"/>
<path d="M85.1614 155.816L86.1337 156.312L96.9814 134.009L85.1614 155.816Z" fill="#F99746"/>
<path d="M96.543 130.766C96.543 130.766 98.7545 131.624 99.7077 129.831C99.7077 129.831 98.5638 131.911 100.07 132.826C100.07 132.826 98.1635 132.063 96.9815 134.009C96.9815 134.009 98.2016 131.987 96.543 130.766Z" fill="#FFB93E"/>
<path d="M97.458 130.022C97.458 130.022 97.2673 128.553 96.5429 128.476C95.7993 128.4 97.2101 129.354 97.458 130.022Z" fill="#FFB93E"/>
<path d="M96.3713 131.872C96.3713 131.872 94.9224 131.567 94.6173 132.216C94.2932 132.884 95.6659 131.853 96.3713 131.872Z" fill="#FFB93E"/>
<path d="M100.299 131.51C100.299 131.51 102.434 131.376 102.358 131.872C102.262 132.368 101.137 131.529 100.299 131.51Z" fill="#FFB93E"/>
<path d="M98.8879 134.2C98.8879 134.2 100.527 135.593 100.127 135.879C99.7268 136.203 99.498 134.811 98.8879 134.2Z" fill="#FFB93E"/>
<path d="M99.1929 129.583C99.1929 129.583 99.3645 127.274 98.7735 127.503C98.2016 127.732 99.1357 129.011 99.1929 129.583Z" fill="#FFB93E"/>
<path d="M100.146 129.831C100.146 129.831 101.347 128.247 101.595 128.61C101.843 128.972 100.146 129.831 100.146 129.831Z" fill="#FFB93E"/>
<path d="M90.5375 148.585C88.7836 149.654 86.0955 148.585 86.0955 148.585V148.452C86.0955 147.135 88.7836 144.388 91.0141 144.293C91.2429 144.293 91.4526 144.35 91.6242 144.445C91.7576 145.38 91.9292 147.784 90.5375 148.585Z" fill="#FFB27D"/>
</g>
<defs>
<radialGradient id="paint0_radial" cx="0" cy="0" r="1" gradientUnits="userSpaceOnUse" gradientTransform="translate(126.5 314) rotate(-37.6899) scale(475.149 971.551)">
<stop stop-color="#50B0A2"/>
<stop offset="1" stop-color="#336099"/>
</radialGradient>
<clipPath id="clip0">
<rect width="558" height="280" fill="white"/>
</clipPath>
</defs>
</svg>
